<mxfile host="Electron" modified="2024-08-27T10:49:29.855Z" agent="Mozilla/5.0 (X11; Linux x86_64) AppleWebKit/537.36 (KHTML, like Gecko) draw.io/24.2.5 Chrome/120.0.6099.109 Electron/28.1.0 Safari/537.36" etag="cNkJGe2RMKLTvUgCj0LG" version="24.2.5" type="device" pages="2">
  <diagram name="UseCase Diagram" id="q7KeLmLo3U4XaiRv-NIn">
    <mxGraphModel dx="1434" dy="1638" grid="1" gridSize="10" guides="1" tooltips="1" connect="1" arrows="1" fold="1" page="0" pageScale="1" pageWidth="1169" pageHeight="827" math="0" shadow="0">
      <root>
        <mxCell id="0" />
        <mxCell id="1" parent="0" />
        <mxCell id="GK85hp0WTLCEUoJov4YT-24" value="کاربران" style="shape=umlFrame;whiteSpace=wrap;html=1;pointerEvents=0;labelBackgroundColor=#1A1D1C;labelBorderColor=none;textShadow=0;swimlaneFillColor=#FFFFFF;fontColor=#FFFFFF;" parent="1" vertex="1">
          <mxGeometry y="92.5" width="1000" height="690" as="geometry" />
        </mxCell>
        <mxCell id="GK85hp0WTLCEUoJov4YT-66" style="edgeStyle=orthogonalEdgeStyle;rounded=0;orthogonalLoop=1;jettySize=auto;html=1;entryX=1;entryY=0.5;entryDx=0;entryDy=0;exitX=0;exitY=0.3333333333333333;exitDx=0;exitDy=0;exitPerimeter=0;strokeColor=#000000;" parent="1" source="GK85hp0WTLCEUoJov4YT-97" target="GK85hp0WTLCEUoJov4YT-60" edge="1">
          <mxGeometry relative="1" as="geometry">
            <mxPoint x="800" y="290" as="sourcePoint" />
          </mxGeometry>
        </mxCell>
        <mxCell id="GK85hp0WTLCEUoJov4YT-41" value="کاربران جدید" style="ellipse;whiteSpace=wrap;html=1;labelBackgroundColor=none;fillColor=#fa6800;strokeColor=#C73500;fontColor=#000000;" parent="1" vertex="1">
          <mxGeometry x="260" y="187.5" width="90" height="70" as="geometry" />
        </mxCell>
        <mxCell id="GK85hp0WTLCEUoJov4YT-42" value="پذیرش کاربر" style="ellipse;whiteSpace=wrap;html=1;labelBackgroundColor=none;fillColor=#fa6800;strokeColor=#C73500;fontColor=#000000;" parent="1" vertex="1">
          <mxGeometry x="180" y="97.5" width="90" height="40" as="geometry" />
        </mxCell>
        <mxCell id="GK85hp0WTLCEUoJov4YT-43" value="عدم پذیرش" style="ellipse;whiteSpace=wrap;html=1;labelBackgroundColor=none;fillColor=#fa6800;strokeColor=#C73500;fontColor=#000000;" parent="1" vertex="1">
          <mxGeometry x="100" y="202.5" width="90" height="40" as="geometry" />
        </mxCell>
        <mxCell id="GK85hp0WTLCEUoJov4YT-44" value="ایجاد کاربر" style="ellipse;whiteSpace=wrap;html=1;labelBackgroundColor=none;fillColor=#fa6800;strokeColor=#C73500;fontColor=#000000;" parent="1" vertex="1">
          <mxGeometry x="270" y="367.5" width="90" height="70" as="geometry" />
        </mxCell>
        <mxCell id="GK85hp0WTLCEUoJov4YT-45" value="&amp;lt;&amp;lt;include&amp;gt;&amp;gt;" style="html=1;verticalAlign=bottom;labelBackgroundColor=none;endArrow=open;endFill=0;dashed=1;rounded=0;entryX=1;entryY=1;entryDx=0;entryDy=0;strokeColor=#FF6392;fontColor=#000000;exitX=0.5;exitY=0;exitDx=0;exitDy=0;" parent="1" source="GK85hp0WTLCEUoJov4YT-41" target="GK85hp0WTLCEUoJov4YT-42" edge="1">
          <mxGeometry width="160" relative="1" as="geometry">
            <mxPoint x="290" y="167.5" as="sourcePoint" />
            <mxPoint x="363" y="131.5" as="targetPoint" />
          </mxGeometry>
        </mxCell>
        <mxCell id="GK85hp0WTLCEUoJov4YT-46" value="&amp;lt;&amp;lt;include&amp;gt;&amp;gt;" style="html=1;verticalAlign=bottom;labelBackgroundColor=none;endArrow=open;endFill=0;dashed=1;rounded=0;entryX=1;entryY=0.5;entryDx=0;entryDy=0;strokeColor=#FF6392;fontColor=#000000;exitX=0;exitY=0.5;exitDx=0;exitDy=0;" parent="1" source="GK85hp0WTLCEUoJov4YT-41" target="GK85hp0WTLCEUoJov4YT-43" edge="1">
          <mxGeometry width="160" relative="1" as="geometry">
            <mxPoint x="230" y="247.5" as="sourcePoint" />
            <mxPoint x="303" y="211.5" as="targetPoint" />
          </mxGeometry>
        </mxCell>
        <mxCell id="GK85hp0WTLCEUoJov4YT-49" value="نام" style="ellipse;whiteSpace=wrap;html=1;labelBackgroundColor=none;fillColor=#fa6800;strokeColor=#C73500;fontColor=#000000;" parent="1" vertex="1">
          <mxGeometry x="40" y="367.5" width="90" height="40" as="geometry" />
        </mxCell>
        <mxCell id="GK85hp0WTLCEUoJov4YT-50" value="نام خانوادگی" style="ellipse;whiteSpace=wrap;html=1;labelBackgroundColor=none;fillColor=#fa6800;strokeColor=#C73500;fontColor=#000000;" parent="1" vertex="1">
          <mxGeometry x="60" y="447.5" width="90" height="40" as="geometry" />
        </mxCell>
        <mxCell id="GK85hp0WTLCEUoJov4YT-51" value="ایمیل" style="ellipse;whiteSpace=wrap;html=1;labelBackgroundColor=none;fillColor=#fa6800;strokeColor=#C73500;fontColor=#000000;" parent="1" vertex="1">
          <mxGeometry x="250" y="562.5" width="90" height="40" as="geometry" />
        </mxCell>
        <mxCell id="GK85hp0WTLCEUoJov4YT-52" value="شماره تماس" style="ellipse;whiteSpace=wrap;html=1;labelBackgroundColor=none;fillColor=#fa6800;strokeColor=#C73500;fontColor=#000000;" parent="1" vertex="1">
          <mxGeometry x="140" y="522.5" width="90" height="40" as="geometry" />
        </mxCell>
        <mxCell id="GK85hp0WTLCEUoJov4YT-54" value="&amp;lt;&amp;lt;include&amp;gt;&amp;gt;" style="html=1;verticalAlign=bottom;labelBackgroundColor=none;endArrow=open;endFill=0;dashed=1;rounded=0;entryX=1;entryY=0.5;entryDx=0;entryDy=0;strokeColor=#FF6392;fontColor=#000000;exitX=0;exitY=0.5;exitDx=0;exitDy=0;" parent="1" source="GK85hp0WTLCEUoJov4YT-44" target="GK85hp0WTLCEUoJov4YT-49" edge="1">
          <mxGeometry width="160" relative="1" as="geometry">
            <mxPoint x="210" y="347.5" as="sourcePoint" />
            <mxPoint x="162" y="291.5" as="targetPoint" />
          </mxGeometry>
        </mxCell>
        <mxCell id="GK85hp0WTLCEUoJov4YT-55" value="&amp;lt;&amp;lt;include&amp;gt;&amp;gt;" style="html=1;verticalAlign=bottom;labelBackgroundColor=none;endArrow=open;endFill=0;dashed=1;rounded=0;entryX=1;entryY=0.5;entryDx=0;entryDy=0;strokeColor=#FF6392;fontColor=#000000;exitX=0;exitY=0.5;exitDx=0;exitDy=0;" parent="1" source="GK85hp0WTLCEUoJov4YT-44" target="GK85hp0WTLCEUoJov4YT-50" edge="1">
          <mxGeometry width="160" relative="1" as="geometry">
            <mxPoint x="220" y="427.5" as="sourcePoint" />
            <mxPoint x="172" y="371.5" as="targetPoint" />
          </mxGeometry>
        </mxCell>
        <mxCell id="GK85hp0WTLCEUoJov4YT-56" value="&amp;lt;&amp;lt;include&amp;gt;&amp;gt;" style="html=1;verticalAlign=bottom;labelBackgroundColor=none;endArrow=open;endFill=0;dashed=1;rounded=0;entryX=1;entryY=0;entryDx=0;entryDy=0;strokeColor=#FF6392;fontColor=#000000;exitX=0;exitY=1;exitDx=0;exitDy=0;" parent="1" source="GK85hp0WTLCEUoJov4YT-44" target="GK85hp0WTLCEUoJov4YT-52" edge="1">
          <mxGeometry width="160" relative="1" as="geometry">
            <mxPoint x="270" y="457.5" as="sourcePoint" />
            <mxPoint x="222" y="401.5" as="targetPoint" />
          </mxGeometry>
        </mxCell>
        <mxCell id="GK85hp0WTLCEUoJov4YT-57" value="&amp;lt;&amp;lt;include&amp;gt;&amp;gt;" style="html=1;verticalAlign=bottom;labelBackgroundColor=none;endArrow=open;endFill=0;dashed=1;rounded=0;entryX=0.5;entryY=0;entryDx=0;entryDy=0;strokeColor=#FF6392;fontColor=#000000;exitX=0.5;exitY=1;exitDx=0;exitDy=0;" parent="1" source="GK85hp0WTLCEUoJov4YT-44" target="GK85hp0WTLCEUoJov4YT-51" edge="1">
          <mxGeometry width="160" relative="1" as="geometry">
            <mxPoint x="300" y="457.5" as="sourcePoint" />
            <mxPoint x="252" y="401.5" as="targetPoint" />
          </mxGeometry>
        </mxCell>
        <mxCell id="GK85hp0WTLCEUoJov4YT-58" value="نقش" style="ellipse;whiteSpace=wrap;html=1;labelBackgroundColor=none;fillColor=#fa6800;strokeColor=#C73500;fontColor=#000000;" parent="1" vertex="1">
          <mxGeometry x="370" y="562.5" width="90" height="40" as="geometry" />
        </mxCell>
        <mxCell id="GK85hp0WTLCEUoJov4YT-59" value="&amp;lt;&amp;lt;include&amp;gt;&amp;gt;" style="html=1;verticalAlign=bottom;labelBackgroundColor=none;endArrow=open;endFill=0;dashed=1;rounded=0;entryX=0.5;entryY=0;entryDx=0;entryDy=0;strokeColor=#FF6392;fontColor=#000000;exitX=1;exitY=1;exitDx=0;exitDy=0;" parent="1" source="GK85hp0WTLCEUoJov4YT-44" target="GK85hp0WTLCEUoJov4YT-58" edge="1">
          <mxGeometry width="160" relative="1" as="geometry">
            <mxPoint x="370" y="487.5" as="sourcePoint" />
            <mxPoint x="350" y="612.5" as="targetPoint" />
          </mxGeometry>
        </mxCell>
        <mxCell id="GK85hp0WTLCEUoJov4YT-60" value="کاربران" style="ellipse;whiteSpace=wrap;html=1;labelBackgroundColor=none;fillColor=#fa6800;strokeColor=#C73500;fontColor=#000000;" parent="1" vertex="1">
          <mxGeometry x="490" y="260" width="90" height="70" as="geometry" />
        </mxCell>
        <mxCell id="GK85hp0WTLCEUoJov4YT-61" value="&amp;lt;&amp;lt;extend&amp;gt;&amp;gt;" style="html=1;verticalAlign=bottom;labelBackgroundColor=none;endArrow=open;endFill=0;dashed=1;rounded=0;exitX=1;exitY=0.5;exitDx=0;exitDy=0;entryX=0;entryY=0;entryDx=0;entryDy=0;strokeColor=#FF6392;fontColor=#000000;" parent="1" source="GK85hp0WTLCEUoJov4YT-41" target="GK85hp0WTLCEUoJov4YT-60" edge="1">
          <mxGeometry width="160" relative="1" as="geometry">
            <mxPoint x="400" y="250" as="sourcePoint" />
            <mxPoint x="435" y="170" as="targetPoint" />
          </mxGeometry>
        </mxCell>
        <mxCell id="GK85hp0WTLCEUoJov4YT-62" value="&amp;lt;&amp;lt;extend&amp;gt;&amp;gt;" style="html=1;verticalAlign=bottom;labelBackgroundColor=none;endArrow=open;endFill=0;dashed=1;rounded=0;exitX=0.5;exitY=0;exitDx=0;exitDy=0;entryX=0;entryY=0.5;entryDx=0;entryDy=0;strokeColor=#FF6392;fontColor=#000000;" parent="1" source="GK85hp0WTLCEUoJov4YT-44" target="GK85hp0WTLCEUoJov4YT-60" edge="1">
          <mxGeometry width="160" relative="1" as="geometry">
            <mxPoint x="360" y="340" as="sourcePoint" />
            <mxPoint x="395" y="260" as="targetPoint" />
          </mxGeometry>
        </mxCell>
        <mxCell id="GK85hp0WTLCEUoJov4YT-63" value="&amp;lt;&amp;lt;extend&amp;gt;&amp;gt;" style="html=1;verticalAlign=bottom;labelBackgroundColor=none;endArrow=open;endFill=0;dashed=1;rounded=0;entryX=0.5;entryY=0;entryDx=0;entryDy=0;strokeColor=#FF6392;fontColor=#000000;exitX=0;exitY=1;exitDx=0;exitDy=0;" parent="1" source="GK85hp0WTLCEUoJov4YT-64" target="GK85hp0WTLCEUoJov4YT-60" edge="1">
          <mxGeometry width="160" relative="1" as="geometry">
            <mxPoint x="600" y="130" as="sourcePoint" />
            <mxPoint x="635" y="50" as="targetPoint" />
          </mxGeometry>
        </mxCell>
        <mxCell id="GK85hp0WTLCEUoJov4YT-64" value="حذف و غیرفعالسازی حساب" style="ellipse;whiteSpace=wrap;html=1;labelBackgroundColor=none;fillColor=#fa6800;strokeColor=#C73500;fontColor=#000000;" parent="1" vertex="1">
          <mxGeometry x="640" y="110" width="90" height="40" as="geometry" />
        </mxCell>
        <mxCell id="GK85hp0WTLCEUoJov4YT-68" value="نام&amp;nbsp;" style="ellipse;whiteSpace=wrap;html=1;strokeColor=#C73500;fontColor=#000000;fillColor=#fa6800;labelBackgroundColor=none;" parent="1" vertex="1">
          <mxGeometry x="680" y="417.5" width="60" height="40" as="geometry" />
        </mxCell>
        <mxCell id="GK85hp0WTLCEUoJov4YT-69" value="نام خانوادگی" style="ellipse;whiteSpace=wrap;html=1;strokeColor=#C73500;fontColor=#000000;fillColor=#fa6800;labelBackgroundColor=none;" parent="1" vertex="1">
          <mxGeometry x="680" y="467.5" width="60" height="40" as="geometry" />
        </mxCell>
        <mxCell id="GK85hp0WTLCEUoJov4YT-70" value="شماره تماس" style="ellipse;whiteSpace=wrap;html=1;strokeColor=#C73500;fontColor=#000000;fillColor=#fa6800;labelBackgroundColor=none;" parent="1" vertex="1">
          <mxGeometry x="680" y="522.5" width="60" height="40" as="geometry" />
        </mxCell>
        <mxCell id="GK85hp0WTLCEUoJov4YT-71" value="ایمیل" style="ellipse;whiteSpace=wrap;html=1;strokeColor=#C73500;fontColor=#000000;fillColor=#fa6800;labelBackgroundColor=none;" parent="1" vertex="1">
          <mxGeometry x="680" y="577.5" width="60" height="40" as="geometry" />
        </mxCell>
        <mxCell id="GK85hp0WTLCEUoJov4YT-72" value="کدملی" style="ellipse;whiteSpace=wrap;html=1;strokeColor=#C73500;fontColor=#000000;fillColor=#fa6800;labelBackgroundColor=none;" parent="1" vertex="1">
          <mxGeometry x="680" y="627.5" width="60" height="40" as="geometry" />
        </mxCell>
        <mxCell id="GK85hp0WTLCEUoJov4YT-73" value="" style="swimlane;startSize=0;strokeColor=#000000;fontColor=#5AA9E6;fillColor=#FFE45E;dashed=1;dashPattern=8 8;" parent="1" vertex="1">
          <mxGeometry x="640" y="407.5" width="130" height="280" as="geometry" />
        </mxCell>
        <mxCell id="GK85hp0WTLCEUoJov4YT-74" value="ویرایش" style="ellipse;whiteSpace=wrap;html=1;strokeColor=#C73500;fontColor=#000000;fillColor=#fa6800;labelBackgroundColor=none;" parent="1" vertex="1">
          <mxGeometry x="875" y="497.5" width="80" height="50" as="geometry" />
        </mxCell>
        <mxCell id="GK85hp0WTLCEUoJov4YT-75" value="&amp;lt;&amp;lt;extend&amp;gt;&amp;gt;" style="edgeStyle=none;html=1;startArrow=open;endArrow=none;startSize=12;verticalAlign=bottom;dashed=1;labelBackgroundColor=none;rounded=0;strokeColor=#FF3399;fontColor=#000000;exitX=1;exitY=0.5;exitDx=0;exitDy=0;entryX=0.013;entryY=0.606;entryDx=0;entryDy=0;entryPerimeter=0;" parent="1" source="GK85hp0WTLCEUoJov4YT-73" target="GK85hp0WTLCEUoJov4YT-74" edge="1">
          <mxGeometry width="160" relative="1" as="geometry">
            <mxPoint x="820" y="487.5" as="sourcePoint" />
            <mxPoint x="929" y="439.5" as="targetPoint" />
          </mxGeometry>
        </mxCell>
        <mxCell id="GK85hp0WTLCEUoJov4YT-76" value="&amp;lt;&amp;lt;include&amp;gt;&amp;gt;" style="html=1;verticalAlign=bottom;labelBackgroundColor=none;endArrow=open;endFill=0;dashed=1;rounded=0;strokeColor=#FF6392;fontColor=#000000;exitX=0.5;exitY=0;exitDx=0;exitDy=0;entryX=0;entryY=0.5;entryDx=0;entryDy=0;" parent="1" target="GK85hp0WTLCEUoJov4YT-73" edge="1">
          <mxGeometry x="-0.0625" y="20" width="160" relative="1" as="geometry">
            <mxPoint x="520" y="437.5" as="sourcePoint" />
            <mxPoint x="700" y="627.5" as="targetPoint" />
            <mxPoint as="offset" />
          </mxGeometry>
        </mxCell>
        <mxCell id="GK85hp0WTLCEUoJov4YT-77" value="جستجو" style="ellipse;whiteSpace=wrap;html=1;labelBackgroundColor=none;fillColor=#fa6800;strokeColor=#C73500;fontColor=#000000;" parent="1" vertex="1">
          <mxGeometry x="440" y="397.5" width="90" height="40" as="geometry" />
        </mxCell>
        <mxCell id="GK85hp0WTLCEUoJov4YT-78" value="&amp;lt;&amp;lt;extend&amp;gt;&amp;gt;" style="html=1;verticalAlign=bottom;labelBackgroundColor=none;endArrow=open;endFill=0;dashed=1;rounded=0;exitX=0.5;exitY=0;exitDx=0;exitDy=0;entryX=0.5;entryY=1;entryDx=0;entryDy=0;strokeColor=#FF6392;fontColor=#000000;" parent="1" source="GK85hp0WTLCEUoJov4YT-77" target="GK85hp0WTLCEUoJov4YT-60" edge="1">
          <mxGeometry width="160" relative="1" as="geometry">
            <mxPoint x="500" y="360" as="sourcePoint" />
            <mxPoint x="675" y="287" as="targetPoint" />
          </mxGeometry>
        </mxCell>
        <mxCell id="GK85hp0WTLCEUoJov4YT-79" value="زیر سیستم ثبت نام" style="shape=umlFrame;whiteSpace=wrap;html=1;pointerEvents=0;swimlaneFillColor=#FFFFFF;" parent="1" vertex="1">
          <mxGeometry y="-550" width="800" height="610" as="geometry" />
        </mxCell>
        <mxCell id="GK85hp0WTLCEUoJov4YT-80" value="ورود" style="ellipse;whiteSpace=wrap;html=1;fillColor=#fa6800;strokeColor=#C73500;noLabel=0;textShadow=0;labelBackgroundColor=none;fontColor=#000000;" parent="1" vertex="1">
          <mxGeometry x="465" y="-280" width="80" height="70" as="geometry" />
        </mxCell>
        <mxCell id="GK85hp0WTLCEUoJov4YT-81" value="بازیابی رمز عبور" style="ellipse;whiteSpace=wrap;html=1;labelBackgroundColor=none;fillColor=#fa6800;strokeColor=#C73500;fontColor=#000000;" parent="1" vertex="1">
          <mxGeometry x="435" y="-130" width="70" height="70" as="geometry" />
        </mxCell>
        <mxCell id="GK85hp0WTLCEUoJov4YT-82" value="ایمیل" style="ellipse;whiteSpace=wrap;html=1;labelBackgroundColor=none;fillColor=#fa6800;strokeColor=#C73500;fontColor=#000000;" parent="1" vertex="1">
          <mxGeometry x="330" y="-10" width="100" height="50" as="geometry" />
        </mxCell>
        <mxCell id="GK85hp0WTLCEUoJov4YT-83" value="شماره تلفن" style="ellipse;whiteSpace=wrap;html=1;labelBackgroundColor=none;fillColor=#fa6800;strokeColor=#C73500;fontColor=#000000;" parent="1" vertex="1">
          <mxGeometry x="485" y="-10" width="100" height="50" as="geometry" />
        </mxCell>
        <mxCell id="GK85hp0WTLCEUoJov4YT-84" value="ثبت نام" style="ellipse;whiteSpace=wrap;html=1;labelBackgroundColor=none;fillColor=#fa6800;strokeColor=#C73500;fontColor=#000000;" parent="1" vertex="1">
          <mxGeometry x="505" y="-430" width="90" height="70" as="geometry" />
        </mxCell>
        <mxCell id="GK85hp0WTLCEUoJov4YT-85" value="رمز عبور" style="ellipse;whiteSpace=wrap;html=1;labelBackgroundColor=none;fillColor=#fa6800;strokeColor=#C73500;fontColor=#000000;" parent="1" vertex="1">
          <mxGeometry x="615" y="-500" width="90" height="40" as="geometry" />
        </mxCell>
        <mxCell id="GK85hp0WTLCEUoJov4YT-86" value="ایمیل" style="ellipse;whiteSpace=wrap;html=1;labelBackgroundColor=none;fillColor=#fa6800;strokeColor=#C73500;fontColor=#000000;" parent="1" vertex="1">
          <mxGeometry x="385" y="-510" width="90" height="40" as="geometry" />
        </mxCell>
        <mxCell id="GK85hp0WTLCEUoJov4YT-87" value="&amp;lt;&amp;lt;extend&amp;gt;&amp;gt;" style="edgeStyle=none;html=1;startArrow=open;endArrow=none;startSize=12;verticalAlign=bottom;dashed=1;labelBackgroundColor=none;rounded=0;strokeColor=#FF6392;fontColor=#000000;" parent="1" source="GK85hp0WTLCEUoJov4YT-80" target="GK85hp0WTLCEUoJov4YT-84" edge="1">
          <mxGeometry width="160" relative="1" as="geometry">
            <mxPoint x="545" y="-240" as="sourcePoint" />
            <mxPoint x="705" y="-240" as="targetPoint" />
          </mxGeometry>
        </mxCell>
        <mxCell id="GK85hp0WTLCEUoJov4YT-88" value="&amp;lt;&amp;lt;include&amp;gt;&amp;gt;" style="html=1;verticalAlign=bottom;labelBackgroundColor=none;endArrow=open;endFill=0;dashed=1;rounded=0;entryX=0;entryY=1;entryDx=0;entryDy=0;strokeColor=#FF6392;fontColor=#000000;" parent="1" target="GK85hp0WTLCEUoJov4YT-85" edge="1">
          <mxGeometry width="160" relative="1" as="geometry">
            <mxPoint x="555" y="-430" as="sourcePoint" />
            <mxPoint x="715" y="-430" as="targetPoint" />
          </mxGeometry>
        </mxCell>
        <mxCell id="GK85hp0WTLCEUoJov4YT-89" value="&amp;lt;&amp;lt;include&amp;gt;&amp;gt;" style="html=1;verticalAlign=bottom;labelBackgroundColor=none;endArrow=open;endFill=0;dashed=1;rounded=0;exitX=0;exitY=0.5;exitDx=0;exitDy=0;entryX=1;entryY=1;entryDx=0;entryDy=0;strokeColor=#FF6392;fontColor=#000000;" parent="1" source="GK85hp0WTLCEUoJov4YT-84" target="GK85hp0WTLCEUoJov4YT-86" edge="1">
          <mxGeometry width="160" relative="1" as="geometry">
            <mxPoint x="695" y="-500" as="sourcePoint" />
            <mxPoint x="855" y="-500" as="targetPoint" />
          </mxGeometry>
        </mxCell>
        <mxCell id="GK85hp0WTLCEUoJov4YT-90" value="&amp;lt;&amp;lt;extend&amp;gt;&amp;gt;" style="html=1;verticalAlign=bottom;labelBackgroundColor=none;endArrow=open;endFill=0;dashed=1;rounded=0;exitX=0.5;exitY=0;exitDx=0;exitDy=0;entryX=0.5;entryY=1;entryDx=0;entryDy=0;strokeColor=#FF6392;fontColor=#000000;" parent="1" source="GK85hp0WTLCEUoJov4YT-81" target="GK85hp0WTLCEUoJov4YT-80" edge="1">
          <mxGeometry width="160" relative="1" as="geometry">
            <mxPoint x="525" y="-170" as="sourcePoint" />
            <mxPoint x="505" y="-120" as="targetPoint" />
          </mxGeometry>
        </mxCell>
        <mxCell id="GK85hp0WTLCEUoJov4YT-91" value="&amp;lt;&amp;lt;include&amp;gt;&amp;gt;" style="html=1;verticalAlign=bottom;labelBackgroundColor=none;endArrow=open;endFill=0;dashed=1;rounded=0;entryX=0.5;entryY=0;entryDx=0;entryDy=0;strokeColor=#FF6392;fontColor=#000000;" parent="1" target="GK85hp0WTLCEUoJov4YT-83" edge="1">
          <mxGeometry width="160" relative="1" as="geometry">
            <mxPoint x="495" y="-80" as="sourcePoint" />
            <mxPoint x="655" y="-80" as="targetPoint" />
          </mxGeometry>
        </mxCell>
        <mxCell id="GK85hp0WTLCEUoJov4YT-92" value="&amp;lt;&amp;lt;include&amp;gt;&amp;gt;" style="html=1;verticalAlign=bottom;labelBackgroundColor=none;endArrow=open;endFill=0;dashed=1;rounded=0;entryX=0.5;entryY=0;entryDx=0;entryDy=0;exitX=0;exitY=1;exitDx=0;exitDy=0;strokeColor=#FF6392;fontColor=#000000;" parent="1" source="GK85hp0WTLCEUoJov4YT-81" target="GK85hp0WTLCEUoJov4YT-82" edge="1">
          <mxGeometry width="160" relative="1" as="geometry">
            <mxPoint x="415" y="-40" as="sourcePoint" />
            <mxPoint x="455" y="30" as="targetPoint" />
          </mxGeometry>
        </mxCell>
        <mxCell id="GK85hp0WTLCEUoJov4YT-93" style="edgeStyle=orthogonalEdgeStyle;rounded=0;hachureGap=4;orthogonalLoop=1;jettySize=auto;html=1;exitX=1;exitY=0.3333333333333333;exitDx=0;exitDy=0;exitPerimeter=0;fontFamily=Architects Daughter;fontSource=https://fonts.googleapis.com/css?family=Architects+Daughter;fontColor=#000000;strokeColor=#000000;" parent="1" source="GK85hp0WTLCEUoJov4YT-94" edge="1">
          <mxGeometry relative="1" as="geometry">
            <mxPoint x="460" y="-245" as="targetPoint" />
            <Array as="points">
              <mxPoint x="140" y="-320" />
              <mxPoint x="140" y="-245" />
            </Array>
          </mxGeometry>
        </mxCell>
        <mxCell id="GK85hp0WTLCEUoJov4YT-94" value="کاربر مهمان" style="shape=umlActor;verticalLabelPosition=bottom;verticalAlign=top;html=1;strokeColor=#000000;fontColor=#000000;" parent="1" vertex="1">
          <mxGeometry x="80" y="-340" width="30" height="60" as="geometry" />
        </mxCell>
        <mxCell id="GK85hp0WTLCEUoJov4YT-95" style="edgeStyle=orthogonalEdgeStyle;rounded=0;orthogonalLoop=1;jettySize=auto;html=1;exitX=1;exitY=0.3333333333333333;exitDx=0;exitDy=0;exitPerimeter=0;entryX=0;entryY=0.5;entryDx=0;entryDy=0;fontColor=#000000;strokeColor=#000000;" parent="1" source="GK85hp0WTLCEUoJov4YT-96" target="GK85hp0WTLCEUoJov4YT-80" edge="1">
          <mxGeometry relative="1" as="geometry">
            <Array as="points">
              <mxPoint x="140" y="-190" />
              <mxPoint x="140" y="-245" />
            </Array>
          </mxGeometry>
        </mxCell>
        <mxCell id="GK85hp0WTLCEUoJov4YT-96" value="نویسنده" style="shape=umlActor;verticalLabelPosition=bottom;verticalAlign=top;html=1;strokeColor=#000000;fontColor=#000000;" parent="1" vertex="1">
          <mxGeometry x="80" y="-210" width="30" height="60" as="geometry" />
        </mxCell>
        <mxCell id="GK85hp0WTLCEUoJov4YT-97" value="ادمین" style="shape=umlActor;verticalLabelPosition=bottom;verticalAlign=top;html=1;strokeColor=#000000;fontColor=#000000;" parent="1" vertex="1">
          <mxGeometry x="800" y="265" width="30" height="60" as="geometry" />
        </mxCell>
        <mxCell id="GK85hp0WTLCEUoJov4YT-99" value="زیر سیستم محتوا" style="shape=umlFrame;whiteSpace=wrap;html=1;pointerEvents=0;hachureGap=4;fontFamily=Architects Daughter;fontSource=https%3A%2F%2Ffonts.googleapis.com%2Fcss%3Ffamily%3DArchitects%2BDaughter;swimlaneFillColor=#FFFFFF;" parent="1" vertex="1">
          <mxGeometry y="850" width="1240" height="710" as="geometry" />
        </mxCell>
        <mxCell id="GK85hp0WTLCEUoJov4YT-115" style="edgeStyle=orthogonalEdgeStyle;rounded=0;orthogonalLoop=1;jettySize=auto;html=1;exitX=1;exitY=0.3333333333333333;exitDx=0;exitDy=0;exitPerimeter=0;entryX=0;entryY=0.5;entryDx=0;entryDy=0;fontColor=#000000;strokeColor=#000000;" parent="1" source="GK85hp0WTLCEUoJov4YT-102" target="GK85hp0WTLCEUoJov4YT-109" edge="1">
          <mxGeometry relative="1" as="geometry" />
        </mxCell>
        <mxCell id="GK85hp0WTLCEUoJov4YT-102" value="نویسنده" style="shape=umlActor;verticalLabelPosition=bottom;verticalAlign=top;html=1;strokeColor=#000000;fontColor=#000000;" parent="1" vertex="1">
          <mxGeometry x="65" y="1080" width="30" height="60" as="geometry" />
        </mxCell>
        <mxCell id="GK85hp0WTLCEUoJov4YT-123" style="edgeStyle=orthogonalEdgeStyle;rounded=0;orthogonalLoop=1;jettySize=auto;html=1;exitX=0.5;exitY=0;exitDx=0;exitDy=0;exitPerimeter=0;entryX=0;entryY=0.5;entryDx=0;entryDy=0;fontColor=#000000;strokeColor=#000000;" parent="1" source="GK85hp0WTLCEUoJov4YT-104" target="GK85hp0WTLCEUoJov4YT-122" edge="1">
          <mxGeometry relative="1" as="geometry" />
        </mxCell>
        <mxCell id="GK85hp0WTLCEUoJov4YT-104" value="ادمین" style="shape=umlActor;verticalLabelPosition=bottom;verticalAlign=top;html=1;strokeColor=#000000;fontColor=#000000;" parent="1" vertex="1">
          <mxGeometry x="342.5" y="1370" width="30" height="60" as="geometry" />
        </mxCell>
        <mxCell id="GK85hp0WTLCEUoJov4YT-108" value="ویرایش" style="ellipse;whiteSpace=wrap;html=1;labelBackgroundColor=none;fillColor=#fa6800;strokeColor=#C73500;fontColor=#000000;" parent="1" vertex="1">
          <mxGeometry x="285" y="960" width="90" height="40" as="geometry" />
        </mxCell>
        <mxCell id="GK85hp0WTLCEUoJov4YT-109" value="مقالات" style="ellipse;whiteSpace=wrap;html=1;labelBackgroundColor=none;fillColor=#fa6800;strokeColor=#C73500;fontColor=#000000;" parent="1" vertex="1">
          <mxGeometry x="322.5" y="1070" width="90" height="70" as="geometry" />
        </mxCell>
        <mxCell id="GK85hp0WTLCEUoJov4YT-110" value="انتشار" style="ellipse;whiteSpace=wrap;html=1;labelBackgroundColor=none;fillColor=#fa6800;strokeColor=#C73500;fontColor=#000000;" parent="1" vertex="1">
          <mxGeometry x="467.5" y="1000" width="90" height="40" as="geometry" />
        </mxCell>
        <mxCell id="GK85hp0WTLCEUoJov4YT-112" value="حذف" style="ellipse;whiteSpace=wrap;html=1;labelBackgroundColor=none;fillColor=#fa6800;strokeColor=#C73500;fontColor=#000000;" parent="1" vertex="1">
          <mxGeometry x="492.5" y="1070" width="90" height="40" as="geometry" />
        </mxCell>
        <mxCell id="GK85hp0WTLCEUoJov4YT-113" value="افزودن" style="ellipse;whiteSpace=wrap;html=1;labelBackgroundColor=none;fillColor=#fa6800;strokeColor=#C73500;fontColor=#000000;" parent="1" vertex="1">
          <mxGeometry x="492.5" y="1150" width="90" height="40" as="geometry" />
        </mxCell>
        <mxCell id="GK85hp0WTLCEUoJov4YT-116" value="&amp;lt;&amp;lt;extend&amp;gt;&amp;gt;" style="html=1;verticalAlign=bottom;labelBackgroundColor=none;endArrow=open;endFill=0;dashed=1;rounded=0;exitX=0.5;exitY=1;exitDx=0;exitDy=0;entryX=0.5;entryY=0;entryDx=0;entryDy=0;strokeColor=#FF6392;fontColor=#000000;" parent="1" source="GK85hp0WTLCEUoJov4YT-108" target="GK85hp0WTLCEUoJov4YT-109" edge="1">
          <mxGeometry width="160" relative="1" as="geometry">
            <mxPoint x="402.5" y="1040" as="sourcePoint" />
            <mxPoint x="577.5" y="967" as="targetPoint" />
          </mxGeometry>
        </mxCell>
        <mxCell id="GK85hp0WTLCEUoJov4YT-117" value="&amp;lt;&amp;lt;extend&amp;gt;&amp;gt;" style="html=1;verticalAlign=bottom;labelBackgroundColor=none;endArrow=open;endFill=0;dashed=1;rounded=0;exitX=0;exitY=1;exitDx=0;exitDy=0;entryX=1;entryY=0;entryDx=0;entryDy=0;strokeColor=#FF6392;fontColor=#000000;" parent="1" source="GK85hp0WTLCEUoJov4YT-110" target="GK85hp0WTLCEUoJov4YT-109" edge="1">
          <mxGeometry width="160" relative="1" as="geometry">
            <mxPoint x="432.5" y="1070" as="sourcePoint" />
            <mxPoint x="607.5" y="997" as="targetPoint" />
          </mxGeometry>
        </mxCell>
        <mxCell id="GK85hp0WTLCEUoJov4YT-118" value="&amp;lt;&amp;lt;extend&amp;gt;&amp;gt;" style="html=1;verticalAlign=bottom;labelBackgroundColor=none;endArrow=open;endFill=0;dashed=1;rounded=0;exitX=0;exitY=0.5;exitDx=0;exitDy=0;entryX=1;entryY=0.5;entryDx=0;entryDy=0;strokeColor=#FF6392;fontColor=#000000;" parent="1" source="GK85hp0WTLCEUoJov4YT-112" target="GK85hp0WTLCEUoJov4YT-109" edge="1">
          <mxGeometry width="160" relative="1" as="geometry">
            <mxPoint x="482.5" y="1090" as="sourcePoint" />
            <mxPoint x="657.5" y="1017" as="targetPoint" />
          </mxGeometry>
        </mxCell>
        <mxCell id="GK85hp0WTLCEUoJov4YT-119" value="&amp;lt;&amp;lt;extend&amp;gt;&amp;gt;" style="html=1;verticalAlign=bottom;labelBackgroundColor=none;endArrow=open;endFill=0;dashed=1;rounded=0;exitX=0;exitY=0;exitDx=0;exitDy=0;entryX=1;entryY=1;entryDx=0;entryDy=0;strokeColor=#FF6392;fontColor=#000000;" parent="1" source="GK85hp0WTLCEUoJov4YT-113" target="GK85hp0WTLCEUoJov4YT-109" edge="1">
          <mxGeometry width="160" relative="1" as="geometry">
            <mxPoint x="452.5" y="1160" as="sourcePoint" />
            <mxPoint x="627.5" y="1087" as="targetPoint" />
          </mxGeometry>
        </mxCell>
        <mxCell id="GK85hp0WTLCEUoJov4YT-120" style="edgeStyle=orthogonalEdgeStyle;rounded=0;orthogonalLoop=1;jettySize=auto;html=1;exitX=0.5;exitY=0;exitDx=0;exitDy=0;exitPerimeter=0;entryX=0.5;entryY=1;entryDx=0;entryDy=0;fontColor=#000000;strokeColor=#000000;" parent="1" source="GK85hp0WTLCEUoJov4YT-104" target="GK85hp0WTLCEUoJov4YT-109" edge="1">
          <mxGeometry relative="1" as="geometry" />
        </mxCell>
        <mxCell id="GK85hp0WTLCEUoJov4YT-121" value="تایید/عدم انتشار" style="ellipse;whiteSpace=wrap;html=1;labelBackgroundColor=none;fillColor=#fa6800;strokeColor=#C73500;fontColor=#000000;" parent="1" vertex="1">
          <mxGeometry x="465" y="1440" width="90" height="40" as="geometry" />
        </mxCell>
        <mxCell id="GK85hp0WTLCEUoJov4YT-122" value="مقالات" style="ellipse;whiteSpace=wrap;html=1;labelBackgroundColor=none;fillColor=#fa6800;strokeColor=#C73500;fontColor=#000000;" parent="1" vertex="1">
          <mxGeometry x="485" y="1280" width="80" height="60" as="geometry" />
        </mxCell>
        <mxCell id="GK85hp0WTLCEUoJov4YT-124" value="&amp;lt;&amp;lt;extend&amp;gt;&amp;gt;" style="html=1;verticalAlign=bottom;labelBackgroundColor=none;endArrow=open;endFill=0;dashed=1;rounded=0;exitX=0.5;exitY=0;exitDx=0;exitDy=0;entryX=0.5;entryY=1;entryDx=0;entryDy=0;strokeColor=#FF6392;fontColor=#000000;" parent="1" source="GK85hp0WTLCEUoJov4YT-121" target="GK85hp0WTLCEUoJov4YT-122" edge="1">
          <mxGeometry width="160" relative="1" as="geometry">
            <mxPoint x="582.5" y="1330" as="sourcePoint" />
            <mxPoint x="476.5" y="1304" as="targetPoint" />
          </mxGeometry>
        </mxCell>
        <mxCell id="GK85hp0WTLCEUoJov4YT-126" value="کامنت گذاری" style="ellipse;whiteSpace=wrap;html=1;labelBackgroundColor=none;fillColor=#fa6800;strokeColor=#C73500;fontColor=#000000;" parent="1" vertex="1">
          <mxGeometry x="185" y="980" width="90" height="40" as="geometry" />
        </mxCell>
        <mxCell id="GK85hp0WTLCEUoJov4YT-127" value="&amp;lt;&amp;lt;extend&amp;gt;&amp;gt;" style="html=1;verticalAlign=bottom;labelBackgroundColor=none;endArrow=open;endFill=0;dashed=1;rounded=0;exitX=0.5;exitY=1;exitDx=0;exitDy=0;entryX=0;entryY=0;entryDx=0;entryDy=0;strokeColor=#FF6392;fontColor=#000000;" parent="1" source="GK85hp0WTLCEUoJov4YT-126" target="GK85hp0WTLCEUoJov4YT-109" edge="1">
          <mxGeometry width="160" relative="1" as="geometry">
            <mxPoint x="275" y="1030" as="sourcePoint" />
            <mxPoint x="275" y="1090" as="targetPoint" />
          </mxGeometry>
        </mxCell>
        <mxCell id="GK85hp0WTLCEUoJov4YT-129" value="رای دادن" style="ellipse;whiteSpace=wrap;html=1;labelBackgroundColor=none;fillColor=#fa6800;strokeColor=#C73500;fontColor=#000000;" parent="1" vertex="1">
          <mxGeometry x="395" y="960" width="90" height="40" as="geometry" />
        </mxCell>
        <mxCell id="GK85hp0WTLCEUoJov4YT-130" value="&amp;lt;&amp;lt;extend&amp;gt;&amp;gt;" style="html=1;verticalAlign=bottom;labelBackgroundColor=none;endArrow=open;endFill=0;dashed=1;rounded=0;exitX=0.5;exitY=1;exitDx=0;exitDy=0;entryX=0.712;entryY=0.059;entryDx=0;entryDy=0;strokeColor=#FF6392;fontColor=#000000;entryPerimeter=0;" parent="1" source="GK85hp0WTLCEUoJov4YT-129" target="GK85hp0WTLCEUoJov4YT-109" edge="1">
          <mxGeometry width="160" relative="1" as="geometry">
            <mxPoint x="532.5" y="1040" as="sourcePoint" />
            <mxPoint x="498" y="1070" as="targetPoint" />
          </mxGeometry>
        </mxCell>
        <mxCell id="GK85hp0WTLCEUoJov4YT-131" value="مسدود سازی کاربر" style="ellipse;whiteSpace=wrap;html=1;labelBackgroundColor=none;fillColor=#fa6800;strokeColor=#C73500;fontColor=#000000;" parent="1" vertex="1">
          <mxGeometry x="575" y="1210" width="90" height="40" as="geometry" />
        </mxCell>
        <mxCell id="GK85hp0WTLCEUoJov4YT-132" value="حذف رای" style="ellipse;whiteSpace=wrap;html=1;labelBackgroundColor=none;fillColor=#fa6800;strokeColor=#C73500;fontColor=#000000;" parent="1" vertex="1">
          <mxGeometry x="645" y="1260" width="90" height="40" as="geometry" />
        </mxCell>
        <mxCell id="GK85hp0WTLCEUoJov4YT-133" value="حذف کامنت" style="ellipse;whiteSpace=wrap;html=1;labelBackgroundColor=none;fillColor=#fa6800;strokeColor=#C73500;fontColor=#000000;" parent="1" vertex="1">
          <mxGeometry x="615" y="1370" width="90" height="40" as="geometry" />
        </mxCell>
        <mxCell id="GK85hp0WTLCEUoJov4YT-134" value="ویرایش کامنت&amp;nbsp;" style="ellipse;whiteSpace=wrap;html=1;labelBackgroundColor=none;fillColor=#fa6800;strokeColor=#C73500;fontColor=#000000;" parent="1" vertex="1">
          <mxGeometry x="595" y="1430" width="90" height="40" as="geometry" />
        </mxCell>
        <mxCell id="GK85hp0WTLCEUoJov4YT-135" value="ویرایش رای" style="ellipse;whiteSpace=wrap;html=1;labelBackgroundColor=none;fillColor=#fa6800;strokeColor=#C73500;fontColor=#000000;" parent="1" vertex="1">
          <mxGeometry x="645" y="1310" width="90" height="40" as="geometry" />
        </mxCell>
        <mxCell id="GK85hp0WTLCEUoJov4YT-136" value="&amp;lt;&amp;lt;extend&amp;gt;&amp;gt;" style="html=1;verticalAlign=bottom;labelBackgroundColor=none;endArrow=open;endFill=0;dashed=1;rounded=0;exitX=0;exitY=0;exitDx=0;exitDy=0;entryX=1;entryY=1;entryDx=0;entryDy=0;strokeColor=#FF6392;fontColor=#000000;" parent="1" source="GK85hp0WTLCEUoJov4YT-134" target="GK85hp0WTLCEUoJov4YT-122" edge="1">
          <mxGeometry width="160" relative="1" as="geometry">
            <mxPoint x="595" y="1350" as="sourcePoint" />
            <mxPoint x="488" y="1324" as="targetPoint" />
          </mxGeometry>
        </mxCell>
        <mxCell id="GK85hp0WTLCEUoJov4YT-137" value="&amp;lt;&amp;lt;extend&amp;gt;&amp;gt;" style="html=1;verticalAlign=bottom;labelBackgroundColor=none;endArrow=open;endFill=0;dashed=1;rounded=0;exitX=0;exitY=0.5;exitDx=0;exitDy=0;entryX=1;entryY=1;entryDx=0;entryDy=0;strokeColor=#FF6392;fontColor=#000000;" parent="1" source="GK85hp0WTLCEUoJov4YT-133" target="GK85hp0WTLCEUoJov4YT-122" edge="1">
          <mxGeometry width="160" relative="1" as="geometry">
            <mxPoint x="605" y="1320" as="sourcePoint" />
            <mxPoint x="498" y="1294" as="targetPoint" />
          </mxGeometry>
        </mxCell>
        <mxCell id="GK85hp0WTLCEUoJov4YT-138" value="&amp;lt;&amp;lt;extend&amp;gt;&amp;gt;" style="html=1;verticalAlign=bottom;labelBackgroundColor=none;endArrow=open;endFill=0;dashed=1;rounded=0;exitX=0;exitY=0.5;exitDx=0;exitDy=0;entryX=1;entryY=0.5;entryDx=0;entryDy=0;strokeColor=#FF6392;fontColor=#000000;" parent="1" source="GK85hp0WTLCEUoJov4YT-135" target="GK85hp0WTLCEUoJov4YT-122" edge="1">
          <mxGeometry width="160" relative="1" as="geometry">
            <mxPoint x="615" y="1300" as="sourcePoint" />
            <mxPoint x="508" y="1274" as="targetPoint" />
          </mxGeometry>
        </mxCell>
        <mxCell id="GK85hp0WTLCEUoJov4YT-139" value="&amp;lt;&amp;lt;extend&amp;gt;&amp;gt;" style="html=1;verticalAlign=bottom;labelBackgroundColor=none;endArrow=open;endFill=0;dashed=1;rounded=0;exitX=0;exitY=0.5;exitDx=0;exitDy=0;entryX=1;entryY=0.5;entryDx=0;entryDy=0;strokeColor=#FF6392;fontColor=#000000;" parent="1" source="GK85hp0WTLCEUoJov4YT-132" target="GK85hp0WTLCEUoJov4YT-122" edge="1">
          <mxGeometry width="160" relative="1" as="geometry">
            <mxPoint x="595" y="1270" as="sourcePoint" />
            <mxPoint x="488" y="1244" as="targetPoint" />
          </mxGeometry>
        </mxCell>
        <mxCell id="GK85hp0WTLCEUoJov4YT-140" value="&amp;lt;&amp;lt;extend&amp;gt;&amp;gt;" style="html=1;verticalAlign=bottom;labelBackgroundColor=none;endArrow=open;endFill=0;dashed=1;rounded=0;exitX=0;exitY=1;exitDx=0;exitDy=0;entryX=1;entryY=0;entryDx=0;entryDy=0;strokeColor=#FF6392;fontColor=#000000;" parent="1" source="GK85hp0WTLCEUoJov4YT-131" target="GK85hp0WTLCEUoJov4YT-122" edge="1">
          <mxGeometry width="160" relative="1" as="geometry">
            <mxPoint x="525" y="1240" as="sourcePoint" />
            <mxPoint x="418" y="1214" as="targetPoint" />
          </mxGeometry>
        </mxCell>
        <mxCell id="qayoAMpqMsvbyKykdwTl-2" value="کار احراز هویت شده" style="shape=umlActor;verticalLabelPosition=bottom;verticalAlign=top;html=1;strokeColor=#000000;fontColor=#000000;" parent="1" vertex="1">
          <mxGeometry x="1160" y="990" width="30" height="60" as="geometry" />
        </mxCell>
        <mxCell id="qayoAMpqMsvbyKykdwTl-3" value="مقالات" style="ellipse;whiteSpace=wrap;html=1;labelBackgroundColor=none;fillColor=#fa6800;strokeColor=#C73500;fontColor=#000000;" parent="1" vertex="1">
          <mxGeometry x="940" y="980" width="90" height="70" as="geometry" />
        </mxCell>
        <mxCell id="qayoAMpqMsvbyKykdwTl-4" value="رای دادن" style="ellipse;whiteSpace=wrap;html=1;labelBackgroundColor=none;fillColor=#fa6800;strokeColor=#C73500;fontColor=#000000;" parent="1" vertex="1">
          <mxGeometry x="785" y="930" width="90" height="40" as="geometry" />
        </mxCell>
        <mxCell id="qayoAMpqMsvbyKykdwTl-5" value="کامنت گذاری" style="ellipse;whiteSpace=wrap;html=1;labelBackgroundColor=none;fillColor=#fa6800;strokeColor=#C73500;fontColor=#000000;" parent="1" vertex="1">
          <mxGeometry x="920" y="880" width="90" height="40" as="geometry" />
        </mxCell>
        <mxCell id="qayoAMpqMsvbyKykdwTl-6" value="&amp;lt;&amp;lt;extend&amp;gt;&amp;gt;" style="html=1;verticalAlign=bottom;labelBackgroundColor=none;endArrow=open;endFill=0;dashed=1;rounded=0;exitX=1;exitY=1;exitDx=0;exitDy=0;entryX=0;entryY=0.5;entryDx=0;entryDy=0;strokeColor=#FF6392;fontColor=#000000;" parent="1" source="qayoAMpqMsvbyKykdwTl-4" target="qayoAMpqMsvbyKykdwTl-3" edge="1">
          <mxGeometry width="160" relative="1" as="geometry">
            <mxPoint x="760" y="980" as="sourcePoint" />
            <mxPoint x="707" y="1054" as="targetPoint" />
          </mxGeometry>
        </mxCell>
        <mxCell id="qayoAMpqMsvbyKykdwTl-7" value="&amp;lt;&amp;lt;extend&amp;gt;&amp;gt;" style="html=1;verticalAlign=bottom;labelBackgroundColor=none;endArrow=open;endFill=0;dashed=1;rounded=0;exitX=0.5;exitY=1;exitDx=0;exitDy=0;entryX=0.5;entryY=0;entryDx=0;entryDy=0;strokeColor=#FF6392;fontColor=#000000;" parent="1" source="qayoAMpqMsvbyKykdwTl-5" target="qayoAMpqMsvbyKykdwTl-3" edge="1">
          <mxGeometry width="160" relative="1" as="geometry">
            <mxPoint x="1060" y="910" as="sourcePoint" />
            <mxPoint x="1007" y="984" as="targetPoint" />
          </mxGeometry>
        </mxCell>
        <mxCell id="qayoAMpqMsvbyKykdwTl-9" style="edgeStyle=orthogonalEdgeStyle;rounded=0;orthogonalLoop=1;jettySize=auto;html=1;exitX=0;exitY=0.3333333333333333;exitDx=0;exitDy=0;exitPerimeter=0;entryX=0.976;entryY=0.439;entryDx=0;entryDy=0;entryPerimeter=0;strokeColor=#000000;" parent="1" source="qayoAMpqMsvbyKykdwTl-2" target="qayoAMpqMsvbyKykdwTl-3" edge="1">
          <mxGeometry relative="1" as="geometry" />
        </mxCell>
      </root>
    </mxGraphModel>
  </diagram>
  <diagram id="xMM9VAPtBhxBuqT1YuRs" name="Page-3">
    <mxGraphModel dx="1687" dy="986" grid="1" gridSize="10" guides="1" tooltips="1" connect="1" arrows="1" fold="1" page="0" pageScale="1" pageWidth="1169" pageHeight="827" background="#FFFFFF" math="0" shadow="1">
      <root>
        <mxCell id="0" />
        <mxCell id="1" parent="0" />
        <mxCell id="bcUhtZM7cYjWSwmSmXdM-14" value="IpAddress" style="shape=table;startSize=30;container=1;collapsible=1;childLayout=tableLayout;fixedRows=1;rowLines=0;fontStyle=1;align=center;resizeLast=1;html=1;sketch=1;curveFitting=1;jiggle=2;fillColor=#fff2cc;strokeColor=#d6b656;" vertex="1" parent="1">
          <mxGeometry x="1370" y="340" width="180" height="90" as="geometry" />
        </mxCell>
        <mxCell id="bcUhtZM7cYjWSwmSmXdM-15" value="" style="shape=tableRow;horizontal=0;startSize=0;swimlaneHead=0;swimlaneBody=0;fillColor=#fff2cc;collapsible=0;dropTarget=0;points=[[0,0.5],[1,0.5]];portConstraint=eastwest;top=0;left=0;right=0;bottom=1;sketch=1;curveFitting=1;jiggle=2;strokeColor=#d6b656;" vertex="1" parent="bcUhtZM7cYjWSwmSmXdM-14">
          <mxGeometry y="30" width="180" height="30" as="geometry" />
        </mxCell>
        <mxCell id="bcUhtZM7cYjWSwmSmXdM-16" value="PK" style="shape=partialRectangle;connectable=0;fillColor=#fff2cc;top=0;left=0;bottom=0;right=0;fontStyle=1;overflow=hidden;whiteSpace=wrap;html=1;sketch=1;curveFitting=1;jiggle=2;strokeColor=#d6b656;" vertex="1" parent="bcUhtZM7cYjWSwmSmXdM-15">
          <mxGeometry width="30" height="30" as="geometry">
            <mxRectangle width="30" height="30" as="alternateBounds" />
          </mxGeometry>
        </mxCell>
        <mxCell id="bcUhtZM7cYjWSwmSmXdM-17" value="UniqueID" style="shape=partialRectangle;connectable=0;fillColor=#fff2cc;top=0;left=0;bottom=0;right=0;align=left;spacingLeft=6;fontStyle=5;overflow=hidden;whiteSpace=wrap;html=1;sketch=1;curveFitting=1;jiggle=2;strokeColor=#d6b656;" vertex="1" parent="bcUhtZM7cYjWSwmSmXdM-15">
          <mxGeometry x="30" width="150" height="30" as="geometry">
            <mxRectangle width="150" height="30" as="alternateBounds" />
          </mxGeometry>
        </mxCell>
        <mxCell id="bcUhtZM7cYjWSwmSmXdM-18" value="" style="shape=tableRow;horizontal=0;startSize=0;swimlaneHead=0;swimlaneBody=0;fillColor=#fff2cc;collapsible=0;dropTarget=0;points=[[0,0.5],[1,0.5]];portConstraint=eastwest;top=0;left=0;right=0;bottom=0;sketch=1;curveFitting=1;jiggle=2;strokeColor=#d6b656;" vertex="1" parent="bcUhtZM7cYjWSwmSmXdM-14">
          <mxGeometry y="60" width="180" height="30" as="geometry" />
        </mxCell>
        <mxCell id="bcUhtZM7cYjWSwmSmXdM-19" value="" style="shape=partialRectangle;connectable=0;fillColor=#fff2cc;top=0;left=0;bottom=0;right=0;editable=1;overflow=hidden;whiteSpace=wrap;html=1;sketch=1;curveFitting=1;jiggle=2;strokeColor=#d6b656;" vertex="1" parent="bcUhtZM7cYjWSwmSmXdM-18">
          <mxGeometry width="30" height="30" as="geometry">
            <mxRectangle width="30" height="30" as="alternateBounds" />
          </mxGeometry>
        </mxCell>
        <mxCell id="bcUhtZM7cYjWSwmSmXdM-20" value="ip_address" style="shape=partialRectangle;connectable=0;fillColor=#fff2cc;top=0;left=0;bottom=0;right=0;align=left;spacingLeft=6;overflow=hidden;whiteSpace=wrap;html=1;sketch=1;curveFitting=1;jiggle=2;strokeColor=#d6b656;" vertex="1" parent="bcUhtZM7cYjWSwmSmXdM-18">
          <mxGeometry x="30" width="150" height="30" as="geometry">
            <mxRectangle width="150" height="30" as="alternateBounds" />
          </mxGeometry>
        </mxCell>
        <mxCell id="bcUhtZM7cYjWSwmSmXdM-33" value="Category" style="shape=table;startSize=30;container=1;collapsible=1;childLayout=tableLayout;fixedRows=1;rowLines=0;fontStyle=1;align=center;resizeLast=1;html=1;sketch=1;curveFitting=1;jiggle=2;fillColor=#fff2cc;strokeColor=#d6b656;" vertex="1" parent="1">
          <mxGeometry x="310" y="260" width="180" height="180" as="geometry" />
        </mxCell>
        <mxCell id="bcUhtZM7cYjWSwmSmXdM-34" value="" style="shape=tableRow;horizontal=0;startSize=0;swimlaneHead=0;swimlaneBody=0;fillColor=#fff2cc;collapsible=0;dropTarget=0;points=[[0,0.5],[1,0.5]];portConstraint=eastwest;top=0;left=0;right=0;bottom=1;sketch=1;curveFitting=1;jiggle=2;strokeColor=#d6b656;" vertex="1" parent="bcUhtZM7cYjWSwmSmXdM-33">
          <mxGeometry y="30" width="180" height="30" as="geometry" />
        </mxCell>
        <mxCell id="bcUhtZM7cYjWSwmSmXdM-35" value="PK" style="shape=partialRectangle;connectable=0;fillColor=#fff2cc;top=0;left=0;bottom=0;right=0;fontStyle=1;overflow=hidden;whiteSpace=wrap;html=1;sketch=1;curveFitting=1;jiggle=2;strokeColor=#d6b656;" vertex="1" parent="bcUhtZM7cYjWSwmSmXdM-34">
          <mxGeometry width="30" height="30" as="geometry">
            <mxRectangle width="30" height="30" as="alternateBounds" />
          </mxGeometry>
        </mxCell>
        <mxCell id="bcUhtZM7cYjWSwmSmXdM-36" value="UniqueID" style="shape=partialRectangle;connectable=0;fillColor=#fff2cc;top=0;left=0;bottom=0;right=0;align=left;spacingLeft=6;fontStyle=5;overflow=hidden;whiteSpace=wrap;html=1;sketch=1;curveFitting=1;jiggle=2;strokeColor=#d6b656;" vertex="1" parent="bcUhtZM7cYjWSwmSmXdM-34">
          <mxGeometry x="30" width="150" height="30" as="geometry">
            <mxRectangle width="150" height="30" as="alternateBounds" />
          </mxGeometry>
        </mxCell>
        <mxCell id="bcUhtZM7cYjWSwmSmXdM-37" value="" style="shape=tableRow;horizontal=0;startSize=0;swimlaneHead=0;swimlaneBody=0;fillColor=#fff2cc;collapsible=0;dropTarget=0;points=[[0,0.5],[1,0.5]];portConstraint=eastwest;top=0;left=0;right=0;bottom=0;sketch=1;curveFitting=1;jiggle=2;strokeColor=#d6b656;" vertex="1" parent="bcUhtZM7cYjWSwmSmXdM-33">
          <mxGeometry y="60" width="180" height="30" as="geometry" />
        </mxCell>
        <mxCell id="bcUhtZM7cYjWSwmSmXdM-38" value="&lt;b&gt;FK&lt;/b&gt;" style="shape=partialRectangle;connectable=0;fillColor=#fff2cc;top=0;left=0;bottom=0;right=0;editable=1;overflow=hidden;whiteSpace=wrap;html=1;sketch=1;curveFitting=1;jiggle=2;strokeColor=#d6b656;" vertex="1" parent="bcUhtZM7cYjWSwmSmXdM-37">
          <mxGeometry width="30" height="30" as="geometry">
            <mxRectangle width="30" height="30" as="alternateBounds" />
          </mxGeometry>
        </mxCell>
        <mxCell id="bcUhtZM7cYjWSwmSmXdM-39" value="parent(self)" style="shape=partialRectangle;connectable=0;fillColor=#fff2cc;top=0;left=0;bottom=0;right=0;align=left;spacingLeft=6;overflow=hidden;whiteSpace=wrap;html=1;sketch=1;curveFitting=1;jiggle=2;strokeColor=#d6b656;" vertex="1" parent="bcUhtZM7cYjWSwmSmXdM-37">
          <mxGeometry x="30" width="150" height="30" as="geometry">
            <mxRectangle width="150" height="30" as="alternateBounds" />
          </mxGeometry>
        </mxCell>
        <mxCell id="bcUhtZM7cYjWSwmSmXdM-40" value="" style="shape=tableRow;horizontal=0;startSize=0;swimlaneHead=0;swimlaneBody=0;fillColor=#fff2cc;collapsible=0;dropTarget=0;points=[[0,0.5],[1,0.5]];portConstraint=eastwest;top=0;left=0;right=0;bottom=0;sketch=1;curveFitting=1;jiggle=2;strokeColor=#d6b656;" vertex="1" parent="bcUhtZM7cYjWSwmSmXdM-33">
          <mxGeometry y="90" width="180" height="30" as="geometry" />
        </mxCell>
        <mxCell id="bcUhtZM7cYjWSwmSmXdM-41" value="" style="shape=partialRectangle;connectable=0;fillColor=#fff2cc;top=0;left=0;bottom=0;right=0;editable=1;overflow=hidden;whiteSpace=wrap;html=1;sketch=1;curveFitting=1;jiggle=2;strokeColor=#d6b656;" vertex="1" parent="bcUhtZM7cYjWSwmSmXdM-40">
          <mxGeometry width="30" height="30" as="geometry">
            <mxRectangle width="30" height="30" as="alternateBounds" />
          </mxGeometry>
        </mxCell>
        <mxCell id="bcUhtZM7cYjWSwmSmXdM-42" value="title" style="shape=partialRectangle;connectable=0;fillColor=#fff2cc;top=0;left=0;bottom=0;right=0;align=left;spacingLeft=6;overflow=hidden;whiteSpace=wrap;html=1;sketch=1;curveFitting=1;jiggle=2;strokeColor=#d6b656;" vertex="1" parent="bcUhtZM7cYjWSwmSmXdM-40">
          <mxGeometry x="30" width="150" height="30" as="geometry">
            <mxRectangle width="150" height="30" as="alternateBounds" />
          </mxGeometry>
        </mxCell>
        <mxCell id="bcUhtZM7cYjWSwmSmXdM-43" value="" style="shape=tableRow;horizontal=0;startSize=0;swimlaneHead=0;swimlaneBody=0;fillColor=#fff2cc;collapsible=0;dropTarget=0;points=[[0,0.5],[1,0.5]];portConstraint=eastwest;top=0;left=0;right=0;bottom=0;sketch=1;curveFitting=1;jiggle=2;strokeColor=#d6b656;" vertex="1" parent="bcUhtZM7cYjWSwmSmXdM-33">
          <mxGeometry y="120" width="180" height="30" as="geometry" />
        </mxCell>
        <mxCell id="bcUhtZM7cYjWSwmSmXdM-44" value="" style="shape=partialRectangle;connectable=0;fillColor=#fff2cc;top=0;left=0;bottom=0;right=0;editable=1;overflow=hidden;whiteSpace=wrap;html=1;sketch=1;curveFitting=1;jiggle=2;strokeColor=#d6b656;" vertex="1" parent="bcUhtZM7cYjWSwmSmXdM-43">
          <mxGeometry width="30" height="30" as="geometry">
            <mxRectangle width="30" height="30" as="alternateBounds" />
          </mxGeometry>
        </mxCell>
        <mxCell id="bcUhtZM7cYjWSwmSmXdM-45" value="slug" style="shape=partialRectangle;connectable=0;fillColor=#fff2cc;top=0;left=0;bottom=0;right=0;align=left;spacingLeft=6;overflow=hidden;whiteSpace=wrap;html=1;sketch=1;curveFitting=1;jiggle=2;strokeColor=#d6b656;" vertex="1" parent="bcUhtZM7cYjWSwmSmXdM-43">
          <mxGeometry x="30" width="150" height="30" as="geometry">
            <mxRectangle width="150" height="30" as="alternateBounds" />
          </mxGeometry>
        </mxCell>
        <mxCell id="bcUhtZM7cYjWSwmSmXdM-46" value="" style="shape=tableRow;horizontal=0;startSize=0;swimlaneHead=0;swimlaneBody=0;fillColor=#fff2cc;collapsible=0;dropTarget=0;points=[[0,0.5],[1,0.5]];portConstraint=eastwest;top=0;left=0;right=0;bottom=0;sketch=1;curveFitting=1;jiggle=2;strokeColor=#d6b656;" vertex="1" parent="bcUhtZM7cYjWSwmSmXdM-33">
          <mxGeometry y="150" width="180" height="30" as="geometry" />
        </mxCell>
        <mxCell id="bcUhtZM7cYjWSwmSmXdM-47" value="" style="shape=partialRectangle;connectable=0;fillColor=#fff2cc;top=0;left=0;bottom=0;right=0;editable=1;overflow=hidden;whiteSpace=wrap;html=1;sketch=1;curveFitting=1;jiggle=2;strokeColor=#d6b656;" vertex="1" parent="bcUhtZM7cYjWSwmSmXdM-46">
          <mxGeometry width="30" height="30" as="geometry">
            <mxRectangle width="30" height="30" as="alternateBounds" />
          </mxGeometry>
        </mxCell>
        <mxCell id="bcUhtZM7cYjWSwmSmXdM-48" value="status" style="shape=partialRectangle;connectable=0;fillColor=#fff2cc;top=0;left=0;bottom=0;right=0;align=left;spacingLeft=6;overflow=hidden;whiteSpace=wrap;html=1;sketch=1;curveFitting=1;jiggle=2;strokeColor=#d6b656;" vertex="1" parent="bcUhtZM7cYjWSwmSmXdM-46">
          <mxGeometry x="30" width="150" height="30" as="geometry">
            <mxRectangle width="150" height="30" as="alternateBounds" />
          </mxGeometry>
        </mxCell>
        <mxCell id="bcUhtZM7cYjWSwmSmXdM-49" value="Article" style="shape=table;startSize=30;container=1;collapsible=1;childLayout=tableLayout;fixedRows=1;rowLines=0;fontStyle=1;align=center;resizeLast=1;html=1;sketch=1;curveFitting=1;jiggle=2;fillColor=#fff2cc;strokeColor=#d6b656;" vertex="1" parent="1">
          <mxGeometry x="650" y="260" width="200" height="450" as="geometry" />
        </mxCell>
        <mxCell id="bcUhtZM7cYjWSwmSmXdM-50" value="" style="shape=tableRow;horizontal=0;startSize=0;swimlaneHead=0;swimlaneBody=0;fillColor=#fff2cc;collapsible=0;dropTarget=0;points=[[0,0.5],[1,0.5]];portConstraint=eastwest;top=0;left=0;right=0;bottom=1;sketch=1;curveFitting=1;jiggle=2;strokeColor=#d6b656;" vertex="1" parent="bcUhtZM7cYjWSwmSmXdM-49">
          <mxGeometry y="30" width="200" height="30" as="geometry" />
        </mxCell>
        <mxCell id="bcUhtZM7cYjWSwmSmXdM-51" value="PK" style="shape=partialRectangle;connectable=0;fillColor=#fff2cc;top=0;left=0;bottom=0;right=0;fontStyle=1;overflow=hidden;whiteSpace=wrap;html=1;sketch=1;curveFitting=1;jiggle=2;strokeColor=#d6b656;" vertex="1" parent="bcUhtZM7cYjWSwmSmXdM-50">
          <mxGeometry width="30" height="30" as="geometry">
            <mxRectangle width="30" height="30" as="alternateBounds" />
          </mxGeometry>
        </mxCell>
        <mxCell id="bcUhtZM7cYjWSwmSmXdM-52" value="UniqueID" style="shape=partialRectangle;connectable=0;fillColor=#fff2cc;top=0;left=0;bottom=0;right=0;align=left;spacingLeft=6;fontStyle=5;overflow=hidden;whiteSpace=wrap;html=1;sketch=1;curveFitting=1;jiggle=2;strokeColor=#d6b656;" vertex="1" parent="bcUhtZM7cYjWSwmSmXdM-50">
          <mxGeometry x="30" width="170" height="30" as="geometry">
            <mxRectangle width="170" height="30" as="alternateBounds" />
          </mxGeometry>
        </mxCell>
        <mxCell id="bcUhtZM7cYjWSwmSmXdM-53" value="" style="shape=tableRow;horizontal=0;startSize=0;swimlaneHead=0;swimlaneBody=0;fillColor=#fff2cc;collapsible=0;dropTarget=0;points=[[0,0.5],[1,0.5]];portConstraint=eastwest;top=0;left=0;right=0;bottom=0;sketch=1;curveFitting=1;jiggle=2;strokeColor=#d6b656;" vertex="1" parent="bcUhtZM7cYjWSwmSmXdM-49">
          <mxGeometry y="60" width="200" height="30" as="geometry" />
        </mxCell>
        <mxCell id="bcUhtZM7cYjWSwmSmXdM-54" value="&lt;b&gt;FK&lt;/b&gt;" style="shape=partialRectangle;connectable=0;fillColor=#fff2cc;top=0;left=0;bottom=0;right=0;editable=1;overflow=hidden;whiteSpace=wrap;html=1;sketch=1;curveFitting=1;jiggle=2;strokeColor=#d6b656;" vertex="1" parent="bcUhtZM7cYjWSwmSmXdM-53">
          <mxGeometry width="30" height="30" as="geometry">
            <mxRectangle width="30" height="30" as="alternateBounds" />
          </mxGeometry>
        </mxCell>
        <mxCell id="bcUhtZM7cYjWSwmSmXdM-55" value="author (User)" style="shape=partialRectangle;connectable=0;fillColor=#fff2cc;top=0;left=0;bottom=0;right=0;align=left;spacingLeft=6;overflow=hidden;whiteSpace=wrap;html=1;sketch=1;curveFitting=1;jiggle=2;strokeColor=#d6b656;" vertex="1" parent="bcUhtZM7cYjWSwmSmXdM-53">
          <mxGeometry x="30" width="170" height="30" as="geometry">
            <mxRectangle width="170" height="30" as="alternateBounds" />
          </mxGeometry>
        </mxCell>
        <mxCell id="bcUhtZM7cYjWSwmSmXdM-56" value="" style="shape=tableRow;horizontal=0;startSize=0;swimlaneHead=0;swimlaneBody=0;fillColor=#fff2cc;collapsible=0;dropTarget=0;points=[[0,0.5],[1,0.5]];portConstraint=eastwest;top=0;left=0;right=0;bottom=0;sketch=1;curveFitting=1;jiggle=2;strokeColor=#d6b656;" vertex="1" parent="bcUhtZM7cYjWSwmSmXdM-49">
          <mxGeometry y="90" width="200" height="30" as="geometry" />
        </mxCell>
        <mxCell id="bcUhtZM7cYjWSwmSmXdM-57" value="" style="shape=partialRectangle;connectable=0;fillColor=#fff2cc;top=0;left=0;bottom=0;right=0;editable=1;overflow=hidden;whiteSpace=wrap;html=1;sketch=1;curveFitting=1;jiggle=2;strokeColor=#d6b656;" vertex="1" parent="bcUhtZM7cYjWSwmSmXdM-56">
          <mxGeometry width="30" height="30" as="geometry">
            <mxRectangle width="30" height="30" as="alternateBounds" />
          </mxGeometry>
        </mxCell>
        <mxCell id="bcUhtZM7cYjWSwmSmXdM-58" value="slug" style="shape=partialRectangle;connectable=0;fillColor=#fff2cc;top=0;left=0;bottom=0;right=0;align=left;spacingLeft=6;overflow=hidden;whiteSpace=wrap;html=1;sketch=1;curveFitting=1;jiggle=2;strokeColor=#d6b656;" vertex="1" parent="bcUhtZM7cYjWSwmSmXdM-56">
          <mxGeometry x="30" width="170" height="30" as="geometry">
            <mxRectangle width="170" height="30" as="alternateBounds" />
          </mxGeometry>
        </mxCell>
        <mxCell id="bcUhtZM7cYjWSwmSmXdM-59" value="" style="shape=tableRow;horizontal=0;startSize=0;swimlaneHead=0;swimlaneBody=0;fillColor=#fff2cc;collapsible=0;dropTarget=0;points=[[0,0.5],[1,0.5]];portConstraint=eastwest;top=0;left=0;right=0;bottom=0;sketch=1;curveFitting=1;jiggle=2;strokeColor=#d6b656;" vertex="1" parent="bcUhtZM7cYjWSwmSmXdM-49">
          <mxGeometry y="120" width="200" height="30" as="geometry" />
        </mxCell>
        <mxCell id="bcUhtZM7cYjWSwmSmXdM-60" value="" style="shape=partialRectangle;connectable=0;fillColor=#fff2cc;top=0;left=0;bottom=0;right=0;editable=1;overflow=hidden;whiteSpace=wrap;html=1;sketch=1;curveFitting=1;jiggle=2;strokeColor=#d6b656;" vertex="1" parent="bcUhtZM7cYjWSwmSmXdM-59">
          <mxGeometry width="30" height="30" as="geometry">
            <mxRectangle width="30" height="30" as="alternateBounds" />
          </mxGeometry>
        </mxCell>
        <mxCell id="bcUhtZM7cYjWSwmSmXdM-61" value="title" style="shape=partialRectangle;connectable=0;fillColor=#fff2cc;top=0;left=0;bottom=0;right=0;align=left;spacingLeft=6;overflow=hidden;whiteSpace=wrap;html=1;sketch=1;curveFitting=1;jiggle=2;strokeColor=#d6b656;" vertex="1" parent="bcUhtZM7cYjWSwmSmXdM-59">
          <mxGeometry x="30" width="170" height="30" as="geometry">
            <mxRectangle width="170" height="30" as="alternateBounds" />
          </mxGeometry>
        </mxCell>
        <mxCell id="bcUhtZM7cYjWSwmSmXdM-62" value="" style="shape=tableRow;horizontal=0;startSize=0;swimlaneHead=0;swimlaneBody=0;fillColor=#fff2cc;collapsible=0;dropTarget=0;points=[[0,0.5],[1,0.5]];portConstraint=eastwest;top=0;left=0;right=0;bottom=0;sketch=1;curveFitting=1;jiggle=2;strokeColor=#d6b656;" vertex="1" parent="bcUhtZM7cYjWSwmSmXdM-49">
          <mxGeometry y="150" width="200" height="30" as="geometry" />
        </mxCell>
        <mxCell id="bcUhtZM7cYjWSwmSmXdM-63" value="" style="shape=partialRectangle;connectable=0;fillColor=#fff2cc;top=0;left=0;bottom=0;right=0;editable=1;overflow=hidden;whiteSpace=wrap;html=1;sketch=1;curveFitting=1;jiggle=2;strokeColor=#d6b656;" vertex="1" parent="bcUhtZM7cYjWSwmSmXdM-62">
          <mxGeometry width="30" height="30" as="geometry">
            <mxRectangle width="30" height="30" as="alternateBounds" />
          </mxGeometry>
        </mxCell>
        <mxCell id="bcUhtZM7cYjWSwmSmXdM-64" value="status" style="shape=partialRectangle;connectable=0;fillColor=#fff2cc;top=0;left=0;bottom=0;right=0;align=left;spacingLeft=6;overflow=hidden;whiteSpace=wrap;html=1;sketch=1;curveFitting=1;jiggle=2;strokeColor=#d6b656;" vertex="1" parent="bcUhtZM7cYjWSwmSmXdM-62">
          <mxGeometry x="30" width="170" height="30" as="geometry">
            <mxRectangle width="170" height="30" as="alternateBounds" />
          </mxGeometry>
        </mxCell>
        <mxCell id="bcUhtZM7cYjWSwmSmXdM-65" value="" style="shape=tableRow;horizontal=0;startSize=0;swimlaneHead=0;swimlaneBody=0;fillColor=#fff2cc;collapsible=0;dropTarget=0;points=[[0,0.5],[1,0.5]];portConstraint=eastwest;top=0;left=0;right=0;bottom=0;sketch=1;curveFitting=1;jiggle=2;strokeColor=#d6b656;" vertex="1" parent="bcUhtZM7cYjWSwmSmXdM-49">
          <mxGeometry y="180" width="200" height="30" as="geometry" />
        </mxCell>
        <mxCell id="bcUhtZM7cYjWSwmSmXdM-66" value="" style="shape=partialRectangle;connectable=0;fillColor=#fff2cc;top=0;left=0;bottom=0;right=0;editable=1;overflow=hidden;whiteSpace=wrap;html=1;sketch=1;curveFitting=1;jiggle=2;strokeColor=#d6b656;" vertex="1" parent="bcUhtZM7cYjWSwmSmXdM-65">
          <mxGeometry width="30" height="30" as="geometry">
            <mxRectangle width="30" height="30" as="alternateBounds" />
          </mxGeometry>
        </mxCell>
        <mxCell id="bcUhtZM7cYjWSwmSmXdM-67" value="publish" style="shape=partialRectangle;connectable=0;fillColor=#fff2cc;top=0;left=0;bottom=0;right=0;align=left;spacingLeft=6;overflow=hidden;whiteSpace=wrap;html=1;sketch=1;curveFitting=1;jiggle=2;strokeColor=#d6b656;" vertex="1" parent="bcUhtZM7cYjWSwmSmXdM-65">
          <mxGeometry x="30" width="170" height="30" as="geometry">
            <mxRectangle width="170" height="30" as="alternateBounds" />
          </mxGeometry>
        </mxCell>
        <mxCell id="bcUhtZM7cYjWSwmSmXdM-68" value="" style="shape=tableRow;horizontal=0;startSize=0;swimlaneHead=0;swimlaneBody=0;fillColor=#fff2cc;collapsible=0;dropTarget=0;points=[[0,0.5],[1,0.5]];portConstraint=eastwest;top=0;left=0;right=0;bottom=0;sketch=1;curveFitting=1;jiggle=2;strokeColor=#d6b656;" vertex="1" parent="bcUhtZM7cYjWSwmSmXdM-49">
          <mxGeometry y="210" width="200" height="30" as="geometry" />
        </mxCell>
        <mxCell id="bcUhtZM7cYjWSwmSmXdM-69" value="" style="shape=partialRectangle;connectable=0;fillColor=#fff2cc;top=0;left=0;bottom=0;right=0;editable=1;overflow=hidden;whiteSpace=wrap;html=1;sketch=1;curveFitting=1;jiggle=2;strokeColor=#d6b656;" vertex="1" parent="bcUhtZM7cYjWSwmSmXdM-68">
          <mxGeometry width="30" height="30" as="geometry">
            <mxRectangle width="30" height="30" as="alternateBounds" />
          </mxGeometry>
        </mxCell>
        <mxCell id="bcUhtZM7cYjWSwmSmXdM-70" value="created" style="shape=partialRectangle;connectable=0;fillColor=#fff2cc;top=0;left=0;bottom=0;right=0;align=left;spacingLeft=6;overflow=hidden;whiteSpace=wrap;html=1;sketch=1;curveFitting=1;jiggle=2;strokeColor=#d6b656;" vertex="1" parent="bcUhtZM7cYjWSwmSmXdM-68">
          <mxGeometry x="30" width="170" height="30" as="geometry">
            <mxRectangle width="170" height="30" as="alternateBounds" />
          </mxGeometry>
        </mxCell>
        <mxCell id="bcUhtZM7cYjWSwmSmXdM-71" value="" style="shape=tableRow;horizontal=0;startSize=0;swimlaneHead=0;swimlaneBody=0;fillColor=#fff2cc;collapsible=0;dropTarget=0;points=[[0,0.5],[1,0.5]];portConstraint=eastwest;top=0;left=0;right=0;bottom=0;sketch=1;curveFitting=1;jiggle=2;strokeColor=#d6b656;" vertex="1" parent="bcUhtZM7cYjWSwmSmXdM-49">
          <mxGeometry y="240" width="200" height="30" as="geometry" />
        </mxCell>
        <mxCell id="bcUhtZM7cYjWSwmSmXdM-72" value="" style="shape=partialRectangle;connectable=0;fillColor=#fff2cc;top=0;left=0;bottom=0;right=0;editable=1;overflow=hidden;whiteSpace=wrap;html=1;sketch=1;curveFitting=1;jiggle=2;strokeColor=#d6b656;" vertex="1" parent="bcUhtZM7cYjWSwmSmXdM-71">
          <mxGeometry width="30" height="30" as="geometry">
            <mxRectangle width="30" height="30" as="alternateBounds" />
          </mxGeometry>
        </mxCell>
        <mxCell id="bcUhtZM7cYjWSwmSmXdM-73" value="updated" style="shape=partialRectangle;connectable=0;fillColor=#fff2cc;top=0;left=0;bottom=0;right=0;align=left;spacingLeft=6;overflow=hidden;whiteSpace=wrap;html=1;sketch=1;curveFitting=1;jiggle=2;strokeColor=#d6b656;" vertex="1" parent="bcUhtZM7cYjWSwmSmXdM-71">
          <mxGeometry x="30" width="170" height="30" as="geometry">
            <mxRectangle width="170" height="30" as="alternateBounds" />
          </mxGeometry>
        </mxCell>
        <mxCell id="bcUhtZM7cYjWSwmSmXdM-74" value="" style="shape=tableRow;horizontal=0;startSize=0;swimlaneHead=0;swimlaneBody=0;fillColor=#fff2cc;collapsible=0;dropTarget=0;points=[[0,0.5],[1,0.5]];portConstraint=eastwest;top=0;left=0;right=0;bottom=0;sketch=1;curveFitting=1;jiggle=2;strokeColor=#d6b656;" vertex="1" parent="bcUhtZM7cYjWSwmSmXdM-49">
          <mxGeometry y="270" width="200" height="30" as="geometry" />
        </mxCell>
        <mxCell id="bcUhtZM7cYjWSwmSmXdM-75" value="" style="shape=partialRectangle;connectable=0;fillColor=#fff2cc;top=0;left=0;bottom=0;right=0;editable=1;overflow=hidden;whiteSpace=wrap;html=1;sketch=1;curveFitting=1;jiggle=2;strokeColor=#d6b656;" vertex="1" parent="bcUhtZM7cYjWSwmSmXdM-74">
          <mxGeometry width="30" height="30" as="geometry">
            <mxRectangle width="30" height="30" as="alternateBounds" />
          </mxGeometry>
        </mxCell>
        <mxCell id="bcUhtZM7cYjWSwmSmXdM-76" value="category" style="shape=partialRectangle;connectable=0;fillColor=#fff2cc;top=0;left=0;bottom=0;right=0;align=left;spacingLeft=6;overflow=hidden;whiteSpace=wrap;html=1;sketch=1;curveFitting=1;jiggle=2;strokeColor=#d6b656;" vertex="1" parent="bcUhtZM7cYjWSwmSmXdM-74">
          <mxGeometry x="30" width="170" height="30" as="geometry">
            <mxRectangle width="170" height="30" as="alternateBounds" />
          </mxGeometry>
        </mxCell>
        <mxCell id="bcUhtZM7cYjWSwmSmXdM-77" value="" style="shape=tableRow;horizontal=0;startSize=0;swimlaneHead=0;swimlaneBody=0;fillColor=#fff2cc;collapsible=0;dropTarget=0;points=[[0,0.5],[1,0.5]];portConstraint=eastwest;top=0;left=0;right=0;bottom=0;sketch=1;curveFitting=1;jiggle=2;strokeColor=#d6b656;" vertex="1" parent="bcUhtZM7cYjWSwmSmXdM-49">
          <mxGeometry y="300" width="200" height="30" as="geometry" />
        </mxCell>
        <mxCell id="bcUhtZM7cYjWSwmSmXdM-78" value="" style="shape=partialRectangle;connectable=0;fillColor=#fff2cc;top=0;left=0;bottom=0;right=0;editable=1;overflow=hidden;whiteSpace=wrap;html=1;sketch=1;curveFitting=1;jiggle=2;strokeColor=#d6b656;" vertex="1" parent="bcUhtZM7cYjWSwmSmXdM-77">
          <mxGeometry width="30" height="30" as="geometry">
            <mxRectangle width="30" height="30" as="alternateBounds" />
          </mxGeometry>
        </mxCell>
        <mxCell id="bcUhtZM7cYjWSwmSmXdM-79" value="thunbnail" style="shape=partialRectangle;connectable=0;fillColor=#fff2cc;top=0;left=0;bottom=0;right=0;align=left;spacingLeft=6;overflow=hidden;whiteSpace=wrap;html=1;sketch=1;curveFitting=1;jiggle=2;strokeColor=#d6b656;" vertex="1" parent="bcUhtZM7cYjWSwmSmXdM-77">
          <mxGeometry x="30" width="170" height="30" as="geometry">
            <mxRectangle width="170" height="30" as="alternateBounds" />
          </mxGeometry>
        </mxCell>
        <mxCell id="bcUhtZM7cYjWSwmSmXdM-80" value="" style="shape=tableRow;horizontal=0;startSize=0;swimlaneHead=0;swimlaneBody=0;fillColor=#fff2cc;collapsible=0;dropTarget=0;points=[[0,0.5],[1,0.5]];portConstraint=eastwest;top=0;left=0;right=0;bottom=0;sketch=1;curveFitting=1;jiggle=2;strokeColor=#d6b656;" vertex="1" parent="bcUhtZM7cYjWSwmSmXdM-49">
          <mxGeometry y="330" width="200" height="30" as="geometry" />
        </mxCell>
        <mxCell id="bcUhtZM7cYjWSwmSmXdM-81" value="" style="shape=partialRectangle;connectable=0;fillColor=#fff2cc;top=0;left=0;bottom=0;right=0;editable=1;overflow=hidden;whiteSpace=wrap;html=1;sketch=1;curveFitting=1;jiggle=2;strokeColor=#d6b656;" vertex="1" parent="bcUhtZM7cYjWSwmSmXdM-80">
          <mxGeometry width="30" height="30" as="geometry">
            <mxRectangle width="30" height="30" as="alternateBounds" />
          </mxGeometry>
        </mxCell>
        <mxCell id="bcUhtZM7cYjWSwmSmXdM-82" value="description" style="shape=partialRectangle;connectable=0;fillColor=#fff2cc;top=0;left=0;bottom=0;right=0;align=left;spacingLeft=6;overflow=hidden;whiteSpace=wrap;html=1;sketch=1;curveFitting=1;jiggle=2;strokeColor=#d6b656;" vertex="1" parent="bcUhtZM7cYjWSwmSmXdM-80">
          <mxGeometry x="30" width="170" height="30" as="geometry">
            <mxRectangle width="170" height="30" as="alternateBounds" />
          </mxGeometry>
        </mxCell>
        <mxCell id="bcUhtZM7cYjWSwmSmXdM-83" value="" style="shape=tableRow;horizontal=0;startSize=0;swimlaneHead=0;swimlaneBody=0;fillColor=#fff2cc;collapsible=0;dropTarget=0;points=[[0,0.5],[1,0.5]];portConstraint=eastwest;top=0;left=0;right=0;bottom=0;sketch=1;curveFitting=1;jiggle=2;strokeColor=#d6b656;" vertex="1" parent="bcUhtZM7cYjWSwmSmXdM-49">
          <mxGeometry y="360" width="200" height="30" as="geometry" />
        </mxCell>
        <mxCell id="bcUhtZM7cYjWSwmSmXdM-84" value="" style="shape=partialRectangle;connectable=0;fillColor=#fff2cc;top=0;left=0;bottom=0;right=0;editable=1;overflow=hidden;whiteSpace=wrap;html=1;sketch=1;curveFitting=1;jiggle=2;strokeColor=#d6b656;" vertex="1" parent="bcUhtZM7cYjWSwmSmXdM-83">
          <mxGeometry width="30" height="30" as="geometry">
            <mxRectangle width="30" height="30" as="alternateBounds" />
          </mxGeometry>
        </mxCell>
        <mxCell id="bcUhtZM7cYjWSwmSmXdM-85" value="is_special" style="shape=partialRectangle;connectable=0;fillColor=#fff2cc;top=0;left=0;bottom=0;right=0;align=left;spacingLeft=6;overflow=hidden;whiteSpace=wrap;html=1;sketch=1;curveFitting=1;jiggle=2;strokeColor=#d6b656;" vertex="1" parent="bcUhtZM7cYjWSwmSmXdM-83">
          <mxGeometry x="30" width="170" height="30" as="geometry">
            <mxRectangle width="170" height="30" as="alternateBounds" />
          </mxGeometry>
        </mxCell>
        <mxCell id="bcUhtZM7cYjWSwmSmXdM-86" value="" style="shape=tableRow;horizontal=0;startSize=0;swimlaneHead=0;swimlaneBody=0;fillColor=#fff2cc;collapsible=0;dropTarget=0;points=[[0,0.5],[1,0.5]];portConstraint=eastwest;top=0;left=0;right=0;bottom=0;sketch=1;curveFitting=1;jiggle=2;strokeColor=#d6b656;" vertex="1" parent="bcUhtZM7cYjWSwmSmXdM-49">
          <mxGeometry y="390" width="200" height="30" as="geometry" />
        </mxCell>
        <mxCell id="bcUhtZM7cYjWSwmSmXdM-87" value="" style="shape=partialRectangle;connectable=0;fillColor=#fff2cc;top=0;left=0;bottom=0;right=0;editable=1;overflow=hidden;whiteSpace=wrap;html=1;sketch=1;curveFitting=1;jiggle=2;strokeColor=#d6b656;" vertex="1" parent="bcUhtZM7cYjWSwmSmXdM-86">
          <mxGeometry width="30" height="30" as="geometry">
            <mxRectangle width="30" height="30" as="alternateBounds" />
          </mxGeometry>
        </mxCell>
        <mxCell id="bcUhtZM7cYjWSwmSmXdM-88" value="comments(GenericRelation)" style="shape=partialRectangle;connectable=0;fillColor=#fff2cc;top=0;left=0;bottom=0;right=0;align=left;spacingLeft=6;overflow=hidden;whiteSpace=wrap;html=1;sketch=1;curveFitting=1;jiggle=2;strokeColor=#d6b656;" vertex="1" parent="bcUhtZM7cYjWSwmSmXdM-86">
          <mxGeometry x="30" width="170" height="30" as="geometry">
            <mxRectangle width="170" height="30" as="alternateBounds" />
          </mxGeometry>
        </mxCell>
        <mxCell id="bcUhtZM7cYjWSwmSmXdM-89" value="" style="shape=tableRow;horizontal=0;startSize=0;swimlaneHead=0;swimlaneBody=0;fillColor=#fff2cc;collapsible=0;dropTarget=0;points=[[0,0.5],[1,0.5]];portConstraint=eastwest;top=0;left=0;right=0;bottom=0;sketch=1;curveFitting=1;jiggle=2;strokeColor=#d6b656;" vertex="1" parent="bcUhtZM7cYjWSwmSmXdM-49">
          <mxGeometry y="420" width="200" height="30" as="geometry" />
        </mxCell>
        <mxCell id="bcUhtZM7cYjWSwmSmXdM-90" value="" style="shape=partialRectangle;connectable=0;fillColor=#fff2cc;top=0;left=0;bottom=0;right=0;editable=1;overflow=hidden;whiteSpace=wrap;html=1;sketch=1;curveFitting=1;jiggle=2;strokeColor=#d6b656;" vertex="1" parent="bcUhtZM7cYjWSwmSmXdM-89">
          <mxGeometry width="30" height="30" as="geometry">
            <mxRectangle width="30" height="30" as="alternateBounds" />
          </mxGeometry>
        </mxCell>
        <mxCell id="bcUhtZM7cYjWSwmSmXdM-91" value="hits" style="shape=partialRectangle;connectable=0;fillColor=#fff2cc;top=0;left=0;bottom=0;right=0;align=left;spacingLeft=6;overflow=hidden;whiteSpace=wrap;html=1;sketch=1;curveFitting=1;jiggle=2;strokeColor=#d6b656;" vertex="1" parent="bcUhtZM7cYjWSwmSmXdM-89">
          <mxGeometry x="30" width="170" height="30" as="geometry">
            <mxRectangle width="170" height="30" as="alternateBounds" />
          </mxGeometry>
        </mxCell>
        <mxCell id="bcUhtZM7cYjWSwmSmXdM-92" value="User" style="shape=table;startSize=30;container=1;collapsible=1;childLayout=tableLayout;fixedRows=1;rowLines=0;fontStyle=1;align=center;resizeLast=1;html=1;sketch=1;curveFitting=1;jiggle=2;fillColor=#fff2cc;strokeColor=#d6b656;" vertex="1" parent="1">
          <mxGeometry x="315" y="480" width="180" height="390" as="geometry" />
        </mxCell>
        <mxCell id="bcUhtZM7cYjWSwmSmXdM-93" value="" style="shape=tableRow;horizontal=0;startSize=0;swimlaneHead=0;swimlaneBody=0;fillColor=#fff2cc;collapsible=0;dropTarget=0;points=[[0,0.5],[1,0.5]];portConstraint=eastwest;top=0;left=0;right=0;bottom=1;sketch=1;curveFitting=1;jiggle=2;strokeColor=#d6b656;" vertex="1" parent="bcUhtZM7cYjWSwmSmXdM-92">
          <mxGeometry y="30" width="180" height="30" as="geometry" />
        </mxCell>
        <mxCell id="bcUhtZM7cYjWSwmSmXdM-94" value="PK" style="shape=partialRectangle;connectable=0;fillColor=#fff2cc;top=0;left=0;bottom=0;right=0;fontStyle=1;overflow=hidden;whiteSpace=wrap;html=1;sketch=1;curveFitting=1;jiggle=2;strokeColor=#d6b656;" vertex="1" parent="bcUhtZM7cYjWSwmSmXdM-93">
          <mxGeometry width="30" height="30" as="geometry">
            <mxRectangle width="30" height="30" as="alternateBounds" />
          </mxGeometry>
        </mxCell>
        <mxCell id="bcUhtZM7cYjWSwmSmXdM-95" value="UniqueID" style="shape=partialRectangle;connectable=0;fillColor=#fff2cc;top=0;left=0;bottom=0;right=0;align=left;spacingLeft=6;fontStyle=5;overflow=hidden;whiteSpace=wrap;html=1;sketch=1;curveFitting=1;jiggle=2;strokeColor=#d6b656;" vertex="1" parent="bcUhtZM7cYjWSwmSmXdM-93">
          <mxGeometry x="30" width="150" height="30" as="geometry">
            <mxRectangle width="150" height="30" as="alternateBounds" />
          </mxGeometry>
        </mxCell>
        <mxCell id="bcUhtZM7cYjWSwmSmXdM-96" value="" style="shape=tableRow;horizontal=0;startSize=0;swimlaneHead=0;swimlaneBody=0;fillColor=#fff2cc;collapsible=0;dropTarget=0;points=[[0,0.5],[1,0.5]];portConstraint=eastwest;top=0;left=0;right=0;bottom=0;sketch=1;curveFitting=1;jiggle=2;strokeColor=#d6b656;" vertex="1" parent="bcUhtZM7cYjWSwmSmXdM-92">
          <mxGeometry y="60" width="180" height="30" as="geometry" />
        </mxCell>
        <mxCell id="bcUhtZM7cYjWSwmSmXdM-97" value="" style="shape=partialRectangle;connectable=0;fillColor=#fff2cc;top=0;left=0;bottom=0;right=0;editable=1;overflow=hidden;whiteSpace=wrap;html=1;sketch=1;curveFitting=1;jiggle=2;strokeColor=#d6b656;" vertex="1" parent="bcUhtZM7cYjWSwmSmXdM-96">
          <mxGeometry width="30" height="30" as="geometry">
            <mxRectangle width="30" height="30" as="alternateBounds" />
          </mxGeometry>
        </mxCell>
        <mxCell id="bcUhtZM7cYjWSwmSmXdM-98" value="name" style="shape=partialRectangle;connectable=0;fillColor=#fff2cc;top=0;left=0;bottom=0;right=0;align=left;spacingLeft=6;overflow=hidden;whiteSpace=wrap;html=1;sketch=1;curveFitting=1;jiggle=2;strokeColor=#d6b656;" vertex="1" parent="bcUhtZM7cYjWSwmSmXdM-96">
          <mxGeometry x="30" width="150" height="30" as="geometry">
            <mxRectangle width="150" height="30" as="alternateBounds" />
          </mxGeometry>
        </mxCell>
        <mxCell id="bcUhtZM7cYjWSwmSmXdM-99" value="" style="shape=tableRow;horizontal=0;startSize=0;swimlaneHead=0;swimlaneBody=0;fillColor=#fff2cc;collapsible=0;dropTarget=0;points=[[0,0.5],[1,0.5]];portConstraint=eastwest;top=0;left=0;right=0;bottom=0;sketch=1;curveFitting=1;jiggle=2;strokeColor=#d6b656;" vertex="1" parent="bcUhtZM7cYjWSwmSmXdM-92">
          <mxGeometry y="90" width="180" height="30" as="geometry" />
        </mxCell>
        <mxCell id="bcUhtZM7cYjWSwmSmXdM-100" value="" style="shape=partialRectangle;connectable=0;fillColor=#fff2cc;top=0;left=0;bottom=0;right=0;editable=1;overflow=hidden;whiteSpace=wrap;html=1;sketch=1;curveFitting=1;jiggle=2;strokeColor=#d6b656;" vertex="1" parent="bcUhtZM7cYjWSwmSmXdM-99">
          <mxGeometry width="30" height="30" as="geometry">
            <mxRectangle width="30" height="30" as="alternateBounds" />
          </mxGeometry>
        </mxCell>
        <mxCell id="bcUhtZM7cYjWSwmSmXdM-101" value="family" style="shape=partialRectangle;connectable=0;fillColor=#fff2cc;top=0;left=0;bottom=0;right=0;align=left;spacingLeft=6;overflow=hidden;whiteSpace=wrap;html=1;sketch=1;curveFitting=1;jiggle=2;strokeColor=#d6b656;" vertex="1" parent="bcUhtZM7cYjWSwmSmXdM-99">
          <mxGeometry x="30" width="150" height="30" as="geometry">
            <mxRectangle width="150" height="30" as="alternateBounds" />
          </mxGeometry>
        </mxCell>
        <mxCell id="bcUhtZM7cYjWSwmSmXdM-102" value="" style="shape=tableRow;horizontal=0;startSize=0;swimlaneHead=0;swimlaneBody=0;fillColor=#fff2cc;collapsible=0;dropTarget=0;points=[[0,0.5],[1,0.5]];portConstraint=eastwest;top=0;left=0;right=0;bottom=0;sketch=1;curveFitting=1;jiggle=2;strokeColor=#d6b656;" vertex="1" parent="bcUhtZM7cYjWSwmSmXdM-92">
          <mxGeometry y="120" width="180" height="30" as="geometry" />
        </mxCell>
        <mxCell id="bcUhtZM7cYjWSwmSmXdM-103" value="" style="shape=partialRectangle;connectable=0;fillColor=#fff2cc;top=0;left=0;bottom=0;right=0;editable=1;overflow=hidden;whiteSpace=wrap;html=1;sketch=1;curveFitting=1;jiggle=2;strokeColor=#d6b656;" vertex="1" parent="bcUhtZM7cYjWSwmSmXdM-102">
          <mxGeometry width="30" height="30" as="geometry">
            <mxRectangle width="30" height="30" as="alternateBounds" />
          </mxGeometry>
        </mxCell>
        <mxCell id="bcUhtZM7cYjWSwmSmXdM-104" value="email" style="shape=partialRectangle;connectable=0;fillColor=#fff2cc;top=0;left=0;bottom=0;right=0;align=left;spacingLeft=6;overflow=hidden;whiteSpace=wrap;html=1;sketch=1;curveFitting=1;jiggle=2;strokeColor=#d6b656;" vertex="1" parent="bcUhtZM7cYjWSwmSmXdM-102">
          <mxGeometry x="30" width="150" height="30" as="geometry">
            <mxRectangle width="150" height="30" as="alternateBounds" />
          </mxGeometry>
        </mxCell>
        <mxCell id="bcUhtZM7cYjWSwmSmXdM-137" value="" style="shape=tableRow;horizontal=0;startSize=0;swimlaneHead=0;swimlaneBody=0;fillColor=#fff2cc;collapsible=0;dropTarget=0;points=[[0,0.5],[1,0.5]];portConstraint=eastwest;top=0;left=0;right=0;bottom=0;sketch=1;curveFitting=1;jiggle=2;strokeColor=#d6b656;" vertex="1" parent="bcUhtZM7cYjWSwmSmXdM-92">
          <mxGeometry y="150" width="180" height="30" as="geometry" />
        </mxCell>
        <mxCell id="bcUhtZM7cYjWSwmSmXdM-138" value="" style="shape=partialRectangle;connectable=0;fillColor=#fff2cc;top=0;left=0;bottom=0;right=0;editable=1;overflow=hidden;whiteSpace=wrap;html=1;sketch=1;curveFitting=1;jiggle=2;strokeColor=#d6b656;" vertex="1" parent="bcUhtZM7cYjWSwmSmXdM-137">
          <mxGeometry width="30" height="30" as="geometry">
            <mxRectangle width="30" height="30" as="alternateBounds" />
          </mxGeometry>
        </mxCell>
        <mxCell id="bcUhtZM7cYjWSwmSmXdM-139" value="special_user" style="shape=partialRectangle;connectable=0;fillColor=#fff2cc;top=0;left=0;bottom=0;right=0;align=left;spacingLeft=6;overflow=hidden;whiteSpace=wrap;html=1;sketch=1;curveFitting=1;jiggle=2;strokeColor=#d6b656;" vertex="1" parent="bcUhtZM7cYjWSwmSmXdM-137">
          <mxGeometry x="30" width="150" height="30" as="geometry">
            <mxRectangle width="150" height="30" as="alternateBounds" />
          </mxGeometry>
        </mxCell>
        <mxCell id="bcUhtZM7cYjWSwmSmXdM-140" value="" style="shape=tableRow;horizontal=0;startSize=0;swimlaneHead=0;swimlaneBody=0;fillColor=#fff2cc;collapsible=0;dropTarget=0;points=[[0,0.5],[1,0.5]];portConstraint=eastwest;top=0;left=0;right=0;bottom=0;sketch=1;curveFitting=1;jiggle=2;strokeColor=#d6b656;" vertex="1" parent="bcUhtZM7cYjWSwmSmXdM-92">
          <mxGeometry y="180" width="180" height="30" as="geometry" />
        </mxCell>
        <mxCell id="bcUhtZM7cYjWSwmSmXdM-141" value="" style="shape=partialRectangle;connectable=0;fillColor=#fff2cc;top=0;left=0;bottom=0;right=0;editable=1;overflow=hidden;whiteSpace=wrap;html=1;sketch=1;curveFitting=1;jiggle=2;strokeColor=#d6b656;" vertex="1" parent="bcUhtZM7cYjWSwmSmXdM-140">
          <mxGeometry width="30" height="30" as="geometry">
            <mxRectangle width="30" height="30" as="alternateBounds" />
          </mxGeometry>
        </mxCell>
        <mxCell id="bcUhtZM7cYjWSwmSmXdM-142" value="is_author" style="shape=partialRectangle;connectable=0;fillColor=#fff2cc;top=0;left=0;bottom=0;right=0;align=left;spacingLeft=6;overflow=hidden;whiteSpace=wrap;html=1;sketch=1;curveFitting=1;jiggle=2;strokeColor=#d6b656;" vertex="1" parent="bcUhtZM7cYjWSwmSmXdM-140">
          <mxGeometry x="30" width="150" height="30" as="geometry">
            <mxRectangle width="150" height="30" as="alternateBounds" />
          </mxGeometry>
        </mxCell>
        <mxCell id="bcUhtZM7cYjWSwmSmXdM-143" value="" style="shape=tableRow;horizontal=0;startSize=0;swimlaneHead=0;swimlaneBody=0;fillColor=#fff2cc;collapsible=0;dropTarget=0;points=[[0,0.5],[1,0.5]];portConstraint=eastwest;top=0;left=0;right=0;bottom=0;sketch=1;curveFitting=1;jiggle=2;strokeColor=#d6b656;" vertex="1" parent="bcUhtZM7cYjWSwmSmXdM-92">
          <mxGeometry y="210" width="180" height="30" as="geometry" />
        </mxCell>
        <mxCell id="bcUhtZM7cYjWSwmSmXdM-144" value="" style="shape=partialRectangle;connectable=0;fillColor=#fff2cc;top=0;left=0;bottom=0;right=0;editable=1;overflow=hidden;whiteSpace=wrap;html=1;sketch=1;curveFitting=1;jiggle=2;strokeColor=#d6b656;" vertex="1" parent="bcUhtZM7cYjWSwmSmXdM-143">
          <mxGeometry width="30" height="30" as="geometry">
            <mxRectangle width="30" height="30" as="alternateBounds" />
          </mxGeometry>
        </mxCell>
        <mxCell id="bcUhtZM7cYjWSwmSmXdM-145" value="username" style="shape=partialRectangle;connectable=0;fillColor=#fff2cc;top=0;left=0;bottom=0;right=0;align=left;spacingLeft=6;overflow=hidden;whiteSpace=wrap;html=1;sketch=1;curveFitting=1;jiggle=2;strokeColor=#d6b656;" vertex="1" parent="bcUhtZM7cYjWSwmSmXdM-143">
          <mxGeometry x="30" width="150" height="30" as="geometry">
            <mxRectangle width="150" height="30" as="alternateBounds" />
          </mxGeometry>
        </mxCell>
        <mxCell id="bcUhtZM7cYjWSwmSmXdM-146" value="" style="shape=tableRow;horizontal=0;startSize=0;swimlaneHead=0;swimlaneBody=0;fillColor=#fff2cc;collapsible=0;dropTarget=0;points=[[0,0.5],[1,0.5]];portConstraint=eastwest;top=0;left=0;right=0;bottom=0;sketch=1;curveFitting=1;jiggle=2;strokeColor=#d6b656;" vertex="1" parent="bcUhtZM7cYjWSwmSmXdM-92">
          <mxGeometry y="240" width="180" height="30" as="geometry" />
        </mxCell>
        <mxCell id="bcUhtZM7cYjWSwmSmXdM-147" value="" style="shape=partialRectangle;connectable=0;fillColor=#fff2cc;top=0;left=0;bottom=0;right=0;editable=1;overflow=hidden;whiteSpace=wrap;html=1;sketch=1;curveFitting=1;jiggle=2;strokeColor=#d6b656;" vertex="1" parent="bcUhtZM7cYjWSwmSmXdM-146">
          <mxGeometry width="30" height="30" as="geometry">
            <mxRectangle width="30" height="30" as="alternateBounds" />
          </mxGeometry>
        </mxCell>
        <mxCell id="bcUhtZM7cYjWSwmSmXdM-148" value="password" style="shape=partialRectangle;connectable=0;fillColor=#fff2cc;top=0;left=0;bottom=0;right=0;align=left;spacingLeft=6;overflow=hidden;whiteSpace=wrap;html=1;sketch=1;curveFitting=1;jiggle=2;strokeColor=#d6b656;" vertex="1" parent="bcUhtZM7cYjWSwmSmXdM-146">
          <mxGeometry x="30" width="150" height="30" as="geometry">
            <mxRectangle width="150" height="30" as="alternateBounds" />
          </mxGeometry>
        </mxCell>
        <mxCell id="bcUhtZM7cYjWSwmSmXdM-149" value="" style="shape=tableRow;horizontal=0;startSize=0;swimlaneHead=0;swimlaneBody=0;fillColor=#fff2cc;collapsible=0;dropTarget=0;points=[[0,0.5],[1,0.5]];portConstraint=eastwest;top=0;left=0;right=0;bottom=0;sketch=1;curveFitting=1;jiggle=2;strokeColor=#d6b656;" vertex="1" parent="bcUhtZM7cYjWSwmSmXdM-92">
          <mxGeometry y="270" width="180" height="30" as="geometry" />
        </mxCell>
        <mxCell id="bcUhtZM7cYjWSwmSmXdM-150" value="" style="shape=partialRectangle;connectable=0;fillColor=#fff2cc;top=0;left=0;bottom=0;right=0;editable=1;overflow=hidden;whiteSpace=wrap;html=1;sketch=1;curveFitting=1;jiggle=2;strokeColor=#d6b656;" vertex="1" parent="bcUhtZM7cYjWSwmSmXdM-149">
          <mxGeometry width="30" height="30" as="geometry">
            <mxRectangle width="30" height="30" as="alternateBounds" />
          </mxGeometry>
        </mxCell>
        <mxCell id="bcUhtZM7cYjWSwmSmXdM-151" value="is_staff" style="shape=partialRectangle;connectable=0;fillColor=#fff2cc;top=0;left=0;bottom=0;right=0;align=left;spacingLeft=6;overflow=hidden;whiteSpace=wrap;html=1;sketch=1;curveFitting=1;jiggle=2;strokeColor=#d6b656;" vertex="1" parent="bcUhtZM7cYjWSwmSmXdM-149">
          <mxGeometry x="30" width="150" height="30" as="geometry">
            <mxRectangle width="150" height="30" as="alternateBounds" />
          </mxGeometry>
        </mxCell>
        <mxCell id="bcUhtZM7cYjWSwmSmXdM-152" value="" style="shape=tableRow;horizontal=0;startSize=0;swimlaneHead=0;swimlaneBody=0;fillColor=#fff2cc;collapsible=0;dropTarget=0;points=[[0,0.5],[1,0.5]];portConstraint=eastwest;top=0;left=0;right=0;bottom=0;sketch=1;curveFitting=1;jiggle=2;strokeColor=#d6b656;" vertex="1" parent="bcUhtZM7cYjWSwmSmXdM-92">
          <mxGeometry y="300" width="180" height="30" as="geometry" />
        </mxCell>
        <mxCell id="bcUhtZM7cYjWSwmSmXdM-153" value="" style="shape=partialRectangle;connectable=0;fillColor=#fff2cc;top=0;left=0;bottom=0;right=0;editable=1;overflow=hidden;whiteSpace=wrap;html=1;sketch=1;curveFitting=1;jiggle=2;strokeColor=#d6b656;" vertex="1" parent="bcUhtZM7cYjWSwmSmXdM-152">
          <mxGeometry width="30" height="30" as="geometry">
            <mxRectangle width="30" height="30" as="alternateBounds" />
          </mxGeometry>
        </mxCell>
        <mxCell id="bcUhtZM7cYjWSwmSmXdM-154" value="is_superuser" style="shape=partialRectangle;connectable=0;fillColor=#fff2cc;top=0;left=0;bottom=0;right=0;align=left;spacingLeft=6;overflow=hidden;whiteSpace=wrap;html=1;sketch=1;curveFitting=1;jiggle=2;strokeColor=#d6b656;" vertex="1" parent="bcUhtZM7cYjWSwmSmXdM-152">
          <mxGeometry x="30" width="150" height="30" as="geometry">
            <mxRectangle width="150" height="30" as="alternateBounds" />
          </mxGeometry>
        </mxCell>
        <mxCell id="bcUhtZM7cYjWSwmSmXdM-155" value="" style="shape=tableRow;horizontal=0;startSize=0;swimlaneHead=0;swimlaneBody=0;fillColor=#fff2cc;collapsible=0;dropTarget=0;points=[[0,0.5],[1,0.5]];portConstraint=eastwest;top=0;left=0;right=0;bottom=0;sketch=1;curveFitting=1;jiggle=2;strokeColor=#d6b656;" vertex="1" parent="bcUhtZM7cYjWSwmSmXdM-92">
          <mxGeometry y="330" width="180" height="30" as="geometry" />
        </mxCell>
        <mxCell id="bcUhtZM7cYjWSwmSmXdM-156" value="" style="shape=partialRectangle;connectable=0;fillColor=#fff2cc;top=0;left=0;bottom=0;right=0;editable=1;overflow=hidden;whiteSpace=wrap;html=1;sketch=1;curveFitting=1;jiggle=2;strokeColor=#d6b656;" vertex="1" parent="bcUhtZM7cYjWSwmSmXdM-155">
          <mxGeometry width="30" height="30" as="geometry">
            <mxRectangle width="30" height="30" as="alternateBounds" />
          </mxGeometry>
        </mxCell>
        <mxCell id="bcUhtZM7cYjWSwmSmXdM-157" value="is_active" style="shape=partialRectangle;connectable=0;fillColor=#fff2cc;top=0;left=0;bottom=0;right=0;align=left;spacingLeft=6;overflow=hidden;whiteSpace=wrap;html=1;sketch=1;curveFitting=1;jiggle=2;strokeColor=#d6b656;" vertex="1" parent="bcUhtZM7cYjWSwmSmXdM-155">
          <mxGeometry x="30" width="150" height="30" as="geometry">
            <mxRectangle width="150" height="30" as="alternateBounds" />
          </mxGeometry>
        </mxCell>
        <mxCell id="bcUhtZM7cYjWSwmSmXdM-158" value="" style="shape=tableRow;horizontal=0;startSize=0;swimlaneHead=0;swimlaneBody=0;fillColor=#fff2cc;collapsible=0;dropTarget=0;points=[[0,0.5],[1,0.5]];portConstraint=eastwest;top=0;left=0;right=0;bottom=0;sketch=1;curveFitting=1;jiggle=2;strokeColor=#d6b656;" vertex="1" parent="bcUhtZM7cYjWSwmSmXdM-92">
          <mxGeometry y="360" width="180" height="30" as="geometry" />
        </mxCell>
        <mxCell id="bcUhtZM7cYjWSwmSmXdM-159" value="" style="shape=partialRectangle;connectable=0;fillColor=#fff2cc;top=0;left=0;bottom=0;right=0;editable=1;overflow=hidden;whiteSpace=wrap;html=1;sketch=1;curveFitting=1;jiggle=2;strokeColor=#d6b656;" vertex="1" parent="bcUhtZM7cYjWSwmSmXdM-158">
          <mxGeometry width="30" height="30" as="geometry">
            <mxRectangle width="30" height="30" as="alternateBounds" />
          </mxGeometry>
        </mxCell>
        <mxCell id="bcUhtZM7cYjWSwmSmXdM-160" value="created" style="shape=partialRectangle;connectable=0;fillColor=#fff2cc;top=0;left=0;bottom=0;right=0;align=left;spacingLeft=6;overflow=hidden;whiteSpace=wrap;html=1;sketch=1;curveFitting=1;jiggle=2;strokeColor=#d6b656;" vertex="1" parent="bcUhtZM7cYjWSwmSmXdM-158">
          <mxGeometry x="30" width="150" height="30" as="geometry">
            <mxRectangle width="150" height="30" as="alternateBounds" />
          </mxGeometry>
        </mxCell>
        <mxCell id="bcUhtZM7cYjWSwmSmXdM-111" value="Article Hint" style="shape=table;startSize=30;container=1;collapsible=1;childLayout=tableLayout;fixedRows=1;rowLines=0;fontStyle=1;align=center;resizeLast=1;html=1;sketch=1;curveFitting=1;jiggle=2;fillColor=#fff2cc;strokeColor=#d6b656;" vertex="1" parent="1">
          <mxGeometry x="1000" y="270" width="180" height="150" as="geometry" />
        </mxCell>
        <mxCell id="bcUhtZM7cYjWSwmSmXdM-112" value="" style="shape=tableRow;horizontal=0;startSize=0;swimlaneHead=0;swimlaneBody=0;fillColor=#fff2cc;collapsible=0;dropTarget=0;points=[[0,0.5],[1,0.5]];portConstraint=eastwest;top=0;left=0;right=0;bottom=1;sketch=1;curveFitting=1;jiggle=2;strokeColor=#d6b656;" vertex="1" parent="bcUhtZM7cYjWSwmSmXdM-111">
          <mxGeometry y="30" width="180" height="30" as="geometry" />
        </mxCell>
        <mxCell id="bcUhtZM7cYjWSwmSmXdM-113" value="PK" style="shape=partialRectangle;connectable=0;fillColor=#fff2cc;top=0;left=0;bottom=0;right=0;fontStyle=1;overflow=hidden;whiteSpace=wrap;html=1;sketch=1;curveFitting=1;jiggle=2;strokeColor=#d6b656;" vertex="1" parent="bcUhtZM7cYjWSwmSmXdM-112">
          <mxGeometry width="30" height="30" as="geometry">
            <mxRectangle width="30" height="30" as="alternateBounds" />
          </mxGeometry>
        </mxCell>
        <mxCell id="bcUhtZM7cYjWSwmSmXdM-114" value="UniqueID" style="shape=partialRectangle;connectable=0;fillColor=#fff2cc;top=0;left=0;bottom=0;right=0;align=left;spacingLeft=6;fontStyle=5;overflow=hidden;whiteSpace=wrap;html=1;sketch=1;curveFitting=1;jiggle=2;strokeColor=#d6b656;" vertex="1" parent="bcUhtZM7cYjWSwmSmXdM-112">
          <mxGeometry x="30" width="150" height="30" as="geometry">
            <mxRectangle width="150" height="30" as="alternateBounds" />
          </mxGeometry>
        </mxCell>
        <mxCell id="bcUhtZM7cYjWSwmSmXdM-115" value="" style="shape=tableRow;horizontal=0;startSize=0;swimlaneHead=0;swimlaneBody=0;fillColor=#fff2cc;collapsible=0;dropTarget=0;points=[[0,0.5],[1,0.5]];portConstraint=eastwest;top=0;left=0;right=0;bottom=0;sketch=1;curveFitting=1;jiggle=2;strokeColor=#d6b656;" vertex="1" parent="bcUhtZM7cYjWSwmSmXdM-111">
          <mxGeometry y="60" width="180" height="30" as="geometry" />
        </mxCell>
        <mxCell id="bcUhtZM7cYjWSwmSmXdM-116" value="" style="shape=partialRectangle;connectable=0;fillColor=#fff2cc;top=0;left=0;bottom=0;right=0;editable=1;overflow=hidden;whiteSpace=wrap;html=1;sketch=1;curveFitting=1;jiggle=2;strokeColor=#d6b656;" vertex="1" parent="bcUhtZM7cYjWSwmSmXdM-115">
          <mxGeometry width="30" height="30" as="geometry">
            <mxRectangle width="30" height="30" as="alternateBounds" />
          </mxGeometry>
        </mxCell>
        <mxCell id="bcUhtZM7cYjWSwmSmXdM-117" value="ip_address" style="shape=partialRectangle;connectable=0;fillColor=#fff2cc;top=0;left=0;bottom=0;right=0;align=left;spacingLeft=6;overflow=hidden;whiteSpace=wrap;html=1;sketch=1;curveFitting=1;jiggle=2;strokeColor=#d6b656;" vertex="1" parent="bcUhtZM7cYjWSwmSmXdM-115">
          <mxGeometry x="30" width="150" height="30" as="geometry">
            <mxRectangle width="150" height="30" as="alternateBounds" />
          </mxGeometry>
        </mxCell>
        <mxCell id="bcUhtZM7cYjWSwmSmXdM-118" value="" style="shape=tableRow;horizontal=0;startSize=0;swimlaneHead=0;swimlaneBody=0;fillColor=#fff2cc;collapsible=0;dropTarget=0;points=[[0,0.5],[1,0.5]];portConstraint=eastwest;top=0;left=0;right=0;bottom=0;sketch=1;curveFitting=1;jiggle=2;strokeColor=#d6b656;" vertex="1" parent="bcUhtZM7cYjWSwmSmXdM-111">
          <mxGeometry y="90" width="180" height="30" as="geometry" />
        </mxCell>
        <mxCell id="bcUhtZM7cYjWSwmSmXdM-119" value="" style="shape=partialRectangle;connectable=0;fillColor=#fff2cc;top=0;left=0;bottom=0;right=0;editable=1;overflow=hidden;whiteSpace=wrap;html=1;sketch=1;curveFitting=1;jiggle=2;strokeColor=#d6b656;" vertex="1" parent="bcUhtZM7cYjWSwmSmXdM-118">
          <mxGeometry width="30" height="30" as="geometry">
            <mxRectangle width="30" height="30" as="alternateBounds" />
          </mxGeometry>
        </mxCell>
        <mxCell id="bcUhtZM7cYjWSwmSmXdM-120" value="article" style="shape=partialRectangle;connectable=0;fillColor=#fff2cc;top=0;left=0;bottom=0;right=0;align=left;spacingLeft=6;overflow=hidden;whiteSpace=wrap;html=1;sketch=1;curveFitting=1;jiggle=2;strokeColor=#d6b656;" vertex="1" parent="bcUhtZM7cYjWSwmSmXdM-118">
          <mxGeometry x="30" width="150" height="30" as="geometry">
            <mxRectangle width="150" height="30" as="alternateBounds" />
          </mxGeometry>
        </mxCell>
        <mxCell id="bcUhtZM7cYjWSwmSmXdM-121" value="" style="shape=tableRow;horizontal=0;startSize=0;swimlaneHead=0;swimlaneBody=0;fillColor=#fff2cc;collapsible=0;dropTarget=0;points=[[0,0.5],[1,0.5]];portConstraint=eastwest;top=0;left=0;right=0;bottom=0;sketch=1;curveFitting=1;jiggle=2;strokeColor=#d6b656;" vertex="1" parent="bcUhtZM7cYjWSwmSmXdM-111">
          <mxGeometry y="120" width="180" height="30" as="geometry" />
        </mxCell>
        <mxCell id="bcUhtZM7cYjWSwmSmXdM-122" value="" style="shape=partialRectangle;connectable=0;fillColor=#fff2cc;top=0;left=0;bottom=0;right=0;editable=1;overflow=hidden;whiteSpace=wrap;html=1;sketch=1;curveFitting=1;jiggle=2;strokeColor=#d6b656;" vertex="1" parent="bcUhtZM7cYjWSwmSmXdM-121">
          <mxGeometry width="30" height="30" as="geometry">
            <mxRectangle width="30" height="30" as="alternateBounds" />
          </mxGeometry>
        </mxCell>
        <mxCell id="bcUhtZM7cYjWSwmSmXdM-123" value="created" style="shape=partialRectangle;connectable=0;fillColor=#fff2cc;top=0;left=0;bottom=0;right=0;align=left;spacingLeft=6;overflow=hidden;whiteSpace=wrap;html=1;sketch=1;curveFitting=1;jiggle=2;strokeColor=#d6b656;" vertex="1" parent="bcUhtZM7cYjWSwmSmXdM-121">
          <mxGeometry x="30" width="150" height="30" as="geometry">
            <mxRectangle width="150" height="30" as="alternateBounds" />
          </mxGeometry>
        </mxCell>
        <mxCell id="bcUhtZM7cYjWSwmSmXdM-126" value="" style="edgeStyle=entityRelationEdgeStyle;fontSize=12;html=1;endArrow=ERoneToMany;rounded=0;entryX=0;entryY=0.5;entryDx=0;entryDy=0;exitX=1;exitY=0.5;exitDx=0;exitDy=0;sketch=1;curveFitting=1;jiggle=2;fillColor=#fff2cc;strokeColor=#d6b656;" edge="1" parent="1" source="bcUhtZM7cYjWSwmSmXdM-50" target="bcUhtZM7cYjWSwmSmXdM-112">
          <mxGeometry width="100" height="100" relative="1" as="geometry">
            <mxPoint x="880" y="410" as="sourcePoint" />
            <mxPoint x="980" y="310" as="targetPoint" />
          </mxGeometry>
        </mxCell>
        <mxCell id="bcUhtZM7cYjWSwmSmXdM-127" value="1" style="text;html=1;align=center;verticalAlign=middle;resizable=0;points=[];autosize=1;strokeColor=#d6b656;fillColor=#fff2cc;sketch=1;curveFitting=1;jiggle=2;" vertex="1" parent="1">
          <mxGeometry x="830" y="280" width="30" height="30" as="geometry" />
        </mxCell>
        <mxCell id="bcUhtZM7cYjWSwmSmXdM-128" value="n" style="text;html=1;align=center;verticalAlign=middle;resizable=0;points=[];autosize=1;strokeColor=#d6b656;fillColor=#fff2cc;sketch=1;curveFitting=1;jiggle=2;" vertex="1" parent="1">
          <mxGeometry x="965" y="288" width="30" height="30" as="geometry" />
        </mxCell>
        <mxCell id="bcUhtZM7cYjWSwmSmXdM-129" value="" style="edgeStyle=entityRelationEdgeStyle;fontSize=12;html=1;endArrow=ERoneToMany;rounded=0;entryX=1;entryY=0.5;entryDx=0;entryDy=0;exitX=0;exitY=0.5;exitDx=0;exitDy=0;sketch=1;curveFitting=1;jiggle=2;fillColor=#fff2cc;strokeColor=#d6b656;" edge="1" parent="1" source="bcUhtZM7cYjWSwmSmXdM-15" target="bcUhtZM7cYjWSwmSmXdM-112">
          <mxGeometry width="100" height="100" relative="1" as="geometry">
            <mxPoint x="1220" y="430" as="sourcePoint" />
            <mxPoint x="1320" y="330" as="targetPoint" />
          </mxGeometry>
        </mxCell>
        <mxCell id="bcUhtZM7cYjWSwmSmXdM-130" value="n" style="text;html=1;align=center;verticalAlign=middle;resizable=0;points=[];autosize=1;strokeColor=#d6b656;fillColor=#fff2cc;sketch=1;curveFitting=1;jiggle=2;" vertex="1" parent="1">
          <mxGeometry x="1175" y="288" width="30" height="30" as="geometry" />
        </mxCell>
        <mxCell id="bcUhtZM7cYjWSwmSmXdM-131" value="1" style="text;html=1;align=center;verticalAlign=middle;resizable=0;points=[];autosize=1;strokeColor=#d6b656;fillColor=#fff2cc;sketch=1;curveFitting=1;jiggle=2;" vertex="1" parent="1">
          <mxGeometry x="1345" y="358" width="30" height="30" as="geometry" />
        </mxCell>
        <mxCell id="bcUhtZM7cYjWSwmSmXdM-132" value="" style="edgeStyle=entityRelationEdgeStyle;fontSize=12;html=1;endArrow=ERmany;startArrow=ERmany;rounded=0;entryX=0;entryY=0.5;entryDx=0;entryDy=0;exitX=1;exitY=0.5;exitDx=0;exitDy=0;sketch=1;curveFitting=1;jiggle=2;fillColor=#fff2cc;strokeColor=#d6b656;" edge="1" parent="1" source="bcUhtZM7cYjWSwmSmXdM-34" target="bcUhtZM7cYjWSwmSmXdM-50">
          <mxGeometry width="100" height="100" relative="1" as="geometry">
            <mxPoint x="530" y="400" as="sourcePoint" />
            <mxPoint x="630" y="300" as="targetPoint" />
          </mxGeometry>
        </mxCell>
        <mxCell id="bcUhtZM7cYjWSwmSmXdM-133" value="n" style="text;html=1;align=center;verticalAlign=middle;resizable=0;points=[];autosize=1;strokeColor=#d6b656;fillColor=#fff2cc;sketch=1;curveFitting=1;jiggle=2;" vertex="1" parent="1">
          <mxGeometry x="495" y="278" width="30" height="30" as="geometry" />
        </mxCell>
        <mxCell id="bcUhtZM7cYjWSwmSmXdM-134" value="n" style="text;html=1;align=center;verticalAlign=middle;resizable=0;points=[];autosize=1;strokeColor=#d6b656;fillColor=#fff2cc;sketch=1;curveFitting=1;jiggle=2;" vertex="1" parent="1">
          <mxGeometry x="615" y="278" width="30" height="30" as="geometry" />
        </mxCell>
        <mxCell id="bcUhtZM7cYjWSwmSmXdM-135" value="" style="edgeStyle=entityRelationEdgeStyle;fontSize=12;html=1;endArrow=ERoneToMany;rounded=0;exitX=0.051;exitY=0.754;exitDx=0;exitDy=0;exitPerimeter=0;entryX=0;entryY=0.5;entryDx=0;entryDy=0;sketch=1;curveFitting=1;jiggle=2;fillColor=#fff2cc;strokeColor=#d6b656;" edge="1" parent="1" source="bcUhtZM7cYjWSwmSmXdM-136" target="bcUhtZM7cYjWSwmSmXdM-50">
          <mxGeometry width="100" height="100" relative="1" as="geometry">
            <mxPoint x="500" y="520" as="sourcePoint" />
            <mxPoint x="600" y="420" as="targetPoint" />
          </mxGeometry>
        </mxCell>
        <mxCell id="bcUhtZM7cYjWSwmSmXdM-136" value="1" style="text;html=1;align=center;verticalAlign=middle;resizable=0;points=[];autosize=1;strokeColor=#d6b656;fillColor=#fff2cc;sketch=1;curveFitting=1;jiggle=2;" vertex="1" parent="1">
          <mxGeometry x="495" y="498" width="30" height="30" as="geometry" />
        </mxCell>
        <mxCell id="bcUhtZM7cYjWSwmSmXdM-164" value="comment" style="shape=table;startSize=30;container=1;collapsible=1;childLayout=tableLayout;fixedRows=1;rowLines=0;fontStyle=1;align=center;resizeLast=1;html=1;sketch=1;curveFitting=1;jiggle=2;fillColor=#fff2cc;strokeColor=#d6b656;" vertex="1" parent="1">
          <mxGeometry x="1020" y="498" width="180" height="330" as="geometry" />
        </mxCell>
        <mxCell id="bcUhtZM7cYjWSwmSmXdM-165" value="" style="shape=tableRow;horizontal=0;startSize=0;swimlaneHead=0;swimlaneBody=0;fillColor=#fff2cc;collapsible=0;dropTarget=0;points=[[0,0.5],[1,0.5]];portConstraint=eastwest;top=0;left=0;right=0;bottom=1;sketch=1;curveFitting=1;jiggle=2;strokeColor=#d6b656;" vertex="1" parent="bcUhtZM7cYjWSwmSmXdM-164">
          <mxGeometry y="30" width="180" height="30" as="geometry" />
        </mxCell>
        <mxCell id="bcUhtZM7cYjWSwmSmXdM-166" value="PK" style="shape=partialRectangle;connectable=0;fillColor=#fff2cc;top=0;left=0;bottom=0;right=0;fontStyle=1;overflow=hidden;whiteSpace=wrap;html=1;sketch=1;curveFitting=1;jiggle=2;strokeColor=#d6b656;" vertex="1" parent="bcUhtZM7cYjWSwmSmXdM-165">
          <mxGeometry width="30" height="30" as="geometry">
            <mxRectangle width="30" height="30" as="alternateBounds" />
          </mxGeometry>
        </mxCell>
        <mxCell id="bcUhtZM7cYjWSwmSmXdM-167" value="UniqueID" style="shape=partialRectangle;connectable=0;fillColor=#fff2cc;top=0;left=0;bottom=0;right=0;align=left;spacingLeft=6;fontStyle=5;overflow=hidden;whiteSpace=wrap;html=1;sketch=1;curveFitting=1;jiggle=2;strokeColor=#d6b656;" vertex="1" parent="bcUhtZM7cYjWSwmSmXdM-165">
          <mxGeometry x="30" width="150" height="30" as="geometry">
            <mxRectangle width="150" height="30" as="alternateBounds" />
          </mxGeometry>
        </mxCell>
        <mxCell id="bcUhtZM7cYjWSwmSmXdM-168" value="" style="shape=tableRow;horizontal=0;startSize=0;swimlaneHead=0;swimlaneBody=0;fillColor=#fff2cc;collapsible=0;dropTarget=0;points=[[0,0.5],[1,0.5]];portConstraint=eastwest;top=0;left=0;right=0;bottom=0;sketch=1;curveFitting=1;jiggle=2;strokeColor=#d6b656;" vertex="1" parent="bcUhtZM7cYjWSwmSmXdM-164">
          <mxGeometry y="60" width="180" height="30" as="geometry" />
        </mxCell>
        <mxCell id="bcUhtZM7cYjWSwmSmXdM-169" value="&lt;b&gt;FK&lt;/b&gt;" style="shape=partialRectangle;connectable=0;fillColor=#fff2cc;top=0;left=0;bottom=0;right=0;editable=1;overflow=hidden;whiteSpace=wrap;html=1;sketch=1;curveFitting=1;jiggle=2;strokeColor=#d6b656;" vertex="1" parent="bcUhtZM7cYjWSwmSmXdM-168">
          <mxGeometry width="30" height="30" as="geometry">
            <mxRectangle width="30" height="30" as="alternateBounds" />
          </mxGeometry>
        </mxCell>
        <mxCell id="bcUhtZM7cYjWSwmSmXdM-170" value="parent(self)" style="shape=partialRectangle;connectable=0;fillColor=#fff2cc;top=0;left=0;bottom=0;right=0;align=left;spacingLeft=6;overflow=hidden;whiteSpace=wrap;html=1;sketch=1;curveFitting=1;jiggle=2;strokeColor=#d6b656;" vertex="1" parent="bcUhtZM7cYjWSwmSmXdM-168">
          <mxGeometry x="30" width="150" height="30" as="geometry">
            <mxRectangle width="150" height="30" as="alternateBounds" />
          </mxGeometry>
        </mxCell>
        <mxCell id="bcUhtZM7cYjWSwmSmXdM-198" value="" style="shape=tableRow;horizontal=0;startSize=0;swimlaneHead=0;swimlaneBody=0;fillColor=#fff2cc;collapsible=0;dropTarget=0;points=[[0,0.5],[1,0.5]];portConstraint=eastwest;top=0;left=0;right=0;bottom=0;sketch=1;curveFitting=1;jiggle=2;strokeColor=#d6b656;" vertex="1" parent="bcUhtZM7cYjWSwmSmXdM-164">
          <mxGeometry y="90" width="180" height="30" as="geometry" />
        </mxCell>
        <mxCell id="bcUhtZM7cYjWSwmSmXdM-199" value="" style="shape=partialRectangle;connectable=0;fillColor=#fff2cc;top=0;left=0;bottom=0;right=0;editable=1;overflow=hidden;whiteSpace=wrap;html=1;sketch=1;curveFitting=1;jiggle=2;strokeColor=#d6b656;" vertex="1" parent="bcUhtZM7cYjWSwmSmXdM-198">
          <mxGeometry width="30" height="30" as="geometry">
            <mxRectangle width="30" height="30" as="alternateBounds" />
          </mxGeometry>
        </mxCell>
        <mxCell id="bcUhtZM7cYjWSwmSmXdM-200" value="user" style="shape=partialRectangle;connectable=0;fillColor=#fff2cc;top=0;left=0;bottom=0;right=0;align=left;spacingLeft=6;overflow=hidden;whiteSpace=wrap;html=1;sketch=1;curveFitting=1;jiggle=2;strokeColor=#d6b656;" vertex="1" parent="bcUhtZM7cYjWSwmSmXdM-198">
          <mxGeometry x="30" width="150" height="30" as="geometry">
            <mxRectangle width="150" height="30" as="alternateBounds" />
          </mxGeometry>
        </mxCell>
        <mxCell id="bcUhtZM7cYjWSwmSmXdM-171" value="" style="shape=tableRow;horizontal=0;startSize=0;swimlaneHead=0;swimlaneBody=0;fillColor=#fff2cc;collapsible=0;dropTarget=0;points=[[0,0.5],[1,0.5]];portConstraint=eastwest;top=0;left=0;right=0;bottom=0;sketch=1;curveFitting=1;jiggle=2;strokeColor=#d6b656;" vertex="1" parent="bcUhtZM7cYjWSwmSmXdM-164">
          <mxGeometry y="120" width="180" height="30" as="geometry" />
        </mxCell>
        <mxCell id="bcUhtZM7cYjWSwmSmXdM-172" value="" style="shape=partialRectangle;connectable=0;fillColor=#fff2cc;top=0;left=0;bottom=0;right=0;editable=1;overflow=hidden;whiteSpace=wrap;html=1;sketch=1;curveFitting=1;jiggle=2;strokeColor=#d6b656;" vertex="1" parent="bcUhtZM7cYjWSwmSmXdM-171">
          <mxGeometry width="30" height="30" as="geometry">
            <mxRectangle width="30" height="30" as="alternateBounds" />
          </mxGeometry>
        </mxCell>
        <mxCell id="bcUhtZM7cYjWSwmSmXdM-173" value="object_id" style="shape=partialRectangle;connectable=0;fillColor=#fff2cc;top=0;left=0;bottom=0;right=0;align=left;spacingLeft=6;overflow=hidden;whiteSpace=wrap;html=1;sketch=1;curveFitting=1;jiggle=2;strokeColor=#d6b656;" vertex="1" parent="bcUhtZM7cYjWSwmSmXdM-171">
          <mxGeometry x="30" width="150" height="30" as="geometry">
            <mxRectangle width="150" height="30" as="alternateBounds" />
          </mxGeometry>
        </mxCell>
        <mxCell id="bcUhtZM7cYjWSwmSmXdM-201" value="" style="shape=tableRow;horizontal=0;startSize=0;swimlaneHead=0;swimlaneBody=0;fillColor=#fff2cc;collapsible=0;dropTarget=0;points=[[0,0.5],[1,0.5]];portConstraint=eastwest;top=0;left=0;right=0;bottom=0;sketch=1;curveFitting=1;jiggle=2;strokeColor=#d6b656;" vertex="1" parent="bcUhtZM7cYjWSwmSmXdM-164">
          <mxGeometry y="150" width="180" height="30" as="geometry" />
        </mxCell>
        <mxCell id="bcUhtZM7cYjWSwmSmXdM-202" value="" style="shape=partialRectangle;connectable=0;fillColor=#fff2cc;top=0;left=0;bottom=0;right=0;editable=1;overflow=hidden;whiteSpace=wrap;html=1;sketch=1;curveFitting=1;jiggle=2;strokeColor=#d6b656;" vertex="1" parent="bcUhtZM7cYjWSwmSmXdM-201">
          <mxGeometry width="30" height="30" as="geometry">
            <mxRectangle width="30" height="30" as="alternateBounds" />
          </mxGeometry>
        </mxCell>
        <mxCell id="bcUhtZM7cYjWSwmSmXdM-203" value="content_type" style="shape=partialRectangle;connectable=0;fillColor=#fff2cc;top=0;left=0;bottom=0;right=0;align=left;spacingLeft=6;overflow=hidden;whiteSpace=wrap;html=1;sketch=1;curveFitting=1;jiggle=2;strokeColor=#d6b656;" vertex="1" parent="bcUhtZM7cYjWSwmSmXdM-201">
          <mxGeometry x="30" width="150" height="30" as="geometry">
            <mxRectangle width="150" height="30" as="alternateBounds" />
          </mxGeometry>
        </mxCell>
        <mxCell id="bcUhtZM7cYjWSwmSmXdM-174" value="" style="shape=tableRow;horizontal=0;startSize=0;swimlaneHead=0;swimlaneBody=0;fillColor=#fff2cc;collapsible=0;dropTarget=0;points=[[0,0.5],[1,0.5]];portConstraint=eastwest;top=0;left=0;right=0;bottom=0;sketch=1;curveFitting=1;jiggle=2;strokeColor=#d6b656;" vertex="1" parent="bcUhtZM7cYjWSwmSmXdM-164">
          <mxGeometry y="180" width="180" height="30" as="geometry" />
        </mxCell>
        <mxCell id="bcUhtZM7cYjWSwmSmXdM-175" value="" style="shape=partialRectangle;connectable=0;fillColor=#fff2cc;top=0;left=0;bottom=0;right=0;editable=1;overflow=hidden;whiteSpace=wrap;html=1;sketch=1;curveFitting=1;jiggle=2;strokeColor=#d6b656;" vertex="1" parent="bcUhtZM7cYjWSwmSmXdM-174">
          <mxGeometry width="30" height="30" as="geometry">
            <mxRectangle width="30" height="30" as="alternateBounds" />
          </mxGeometry>
        </mxCell>
        <mxCell id="bcUhtZM7cYjWSwmSmXdM-176" value="content_object" style="shape=partialRectangle;connectable=0;fillColor=#fff2cc;top=0;left=0;bottom=0;right=0;align=left;spacingLeft=6;overflow=hidden;whiteSpace=wrap;html=1;sketch=1;curveFitting=1;jiggle=2;strokeColor=#d6b656;" vertex="1" parent="bcUhtZM7cYjWSwmSmXdM-174">
          <mxGeometry x="30" width="150" height="30" as="geometry">
            <mxRectangle width="150" height="30" as="alternateBounds" />
          </mxGeometry>
        </mxCell>
        <mxCell id="bcUhtZM7cYjWSwmSmXdM-189" value="" style="shape=tableRow;horizontal=0;startSize=0;swimlaneHead=0;swimlaneBody=0;fillColor=#fff2cc;collapsible=0;dropTarget=0;points=[[0,0.5],[1,0.5]];portConstraint=eastwest;top=0;left=0;right=0;bottom=0;sketch=1;curveFitting=1;jiggle=2;strokeColor=#d6b656;" vertex="1" parent="bcUhtZM7cYjWSwmSmXdM-164">
          <mxGeometry y="210" width="180" height="30" as="geometry" />
        </mxCell>
        <mxCell id="bcUhtZM7cYjWSwmSmXdM-190" value="" style="shape=partialRectangle;connectable=0;fillColor=#fff2cc;top=0;left=0;bottom=0;right=0;editable=1;overflow=hidden;whiteSpace=wrap;html=1;sketch=1;curveFitting=1;jiggle=2;strokeColor=#d6b656;" vertex="1" parent="bcUhtZM7cYjWSwmSmXdM-189">
          <mxGeometry width="30" height="30" as="geometry">
            <mxRectangle width="30" height="30" as="alternateBounds" />
          </mxGeometry>
        </mxCell>
        <mxCell id="bcUhtZM7cYjWSwmSmXdM-191" value="content" style="shape=partialRectangle;connectable=0;fillColor=#fff2cc;top=0;left=0;bottom=0;right=0;align=left;spacingLeft=6;overflow=hidden;whiteSpace=wrap;html=1;sketch=1;curveFitting=1;jiggle=2;strokeColor=#d6b656;" vertex="1" parent="bcUhtZM7cYjWSwmSmXdM-189">
          <mxGeometry x="30" width="150" height="30" as="geometry">
            <mxRectangle width="150" height="30" as="alternateBounds" />
          </mxGeometry>
        </mxCell>
        <mxCell id="bcUhtZM7cYjWSwmSmXdM-192" value="" style="shape=tableRow;horizontal=0;startSize=0;swimlaneHead=0;swimlaneBody=0;fillColor=#fff2cc;collapsible=0;dropTarget=0;points=[[0,0.5],[1,0.5]];portConstraint=eastwest;top=0;left=0;right=0;bottom=0;sketch=1;curveFitting=1;jiggle=2;strokeColor=#d6b656;" vertex="1" parent="bcUhtZM7cYjWSwmSmXdM-164">
          <mxGeometry y="240" width="180" height="30" as="geometry" />
        </mxCell>
        <mxCell id="bcUhtZM7cYjWSwmSmXdM-193" value="" style="shape=partialRectangle;connectable=0;fillColor=#fff2cc;top=0;left=0;bottom=0;right=0;editable=1;overflow=hidden;whiteSpace=wrap;html=1;sketch=1;curveFitting=1;jiggle=2;strokeColor=#d6b656;" vertex="1" parent="bcUhtZM7cYjWSwmSmXdM-192">
          <mxGeometry width="30" height="30" as="geometry">
            <mxRectangle width="30" height="30" as="alternateBounds" />
          </mxGeometry>
        </mxCell>
        <mxCell id="bcUhtZM7cYjWSwmSmXdM-194" value="posted" style="shape=partialRectangle;connectable=0;fillColor=#fff2cc;top=0;left=0;bottom=0;right=0;align=left;spacingLeft=6;overflow=hidden;whiteSpace=wrap;html=1;sketch=1;curveFitting=1;jiggle=2;strokeColor=#d6b656;" vertex="1" parent="bcUhtZM7cYjWSwmSmXdM-192">
          <mxGeometry x="30" width="150" height="30" as="geometry">
            <mxRectangle width="150" height="30" as="alternateBounds" />
          </mxGeometry>
        </mxCell>
        <mxCell id="bcUhtZM7cYjWSwmSmXdM-195" value="" style="shape=tableRow;horizontal=0;startSize=0;swimlaneHead=0;swimlaneBody=0;fillColor=#fff2cc;collapsible=0;dropTarget=0;points=[[0,0.5],[1,0.5]];portConstraint=eastwest;top=0;left=0;right=0;bottom=0;sketch=1;curveFitting=1;jiggle=2;strokeColor=#d6b656;" vertex="1" parent="bcUhtZM7cYjWSwmSmXdM-164">
          <mxGeometry y="270" width="180" height="30" as="geometry" />
        </mxCell>
        <mxCell id="bcUhtZM7cYjWSwmSmXdM-196" value="" style="shape=partialRectangle;connectable=0;fillColor=#fff2cc;top=0;left=0;bottom=0;right=0;editable=1;overflow=hidden;whiteSpace=wrap;html=1;sketch=1;curveFitting=1;jiggle=2;strokeColor=#d6b656;" vertex="1" parent="bcUhtZM7cYjWSwmSmXdM-195">
          <mxGeometry width="30" height="30" as="geometry">
            <mxRectangle width="30" height="30" as="alternateBounds" />
          </mxGeometry>
        </mxCell>
        <mxCell id="bcUhtZM7cYjWSwmSmXdM-197" value="edited" style="shape=partialRectangle;connectable=0;fillColor=#fff2cc;top=0;left=0;bottom=0;right=0;align=left;spacingLeft=6;overflow=hidden;whiteSpace=wrap;html=1;sketch=1;curveFitting=1;jiggle=2;strokeColor=#d6b656;" vertex="1" parent="bcUhtZM7cYjWSwmSmXdM-195">
          <mxGeometry x="30" width="150" height="30" as="geometry">
            <mxRectangle width="150" height="30" as="alternateBounds" />
          </mxGeometry>
        </mxCell>
        <mxCell id="bcUhtZM7cYjWSwmSmXdM-205" value="" style="shape=tableRow;horizontal=0;startSize=0;swimlaneHead=0;swimlaneBody=0;fillColor=#fff2cc;collapsible=0;dropTarget=0;points=[[0,0.5],[1,0.5]];portConstraint=eastwest;top=0;left=0;right=0;bottom=0;sketch=1;curveFitting=1;jiggle=2;strokeColor=#d6b656;" vertex="1" parent="bcUhtZM7cYjWSwmSmXdM-164">
          <mxGeometry y="300" width="180" height="30" as="geometry" />
        </mxCell>
        <mxCell id="bcUhtZM7cYjWSwmSmXdM-206" value="" style="shape=partialRectangle;connectable=0;fillColor=#fff2cc;top=0;left=0;bottom=0;right=0;editable=1;overflow=hidden;whiteSpace=wrap;html=1;sketch=1;curveFitting=1;jiggle=2;strokeColor=#d6b656;" vertex="1" parent="bcUhtZM7cYjWSwmSmXdM-205">
          <mxGeometry width="30" height="30" as="geometry">
            <mxRectangle width="30" height="30" as="alternateBounds" />
          </mxGeometry>
        </mxCell>
        <mxCell id="bcUhtZM7cYjWSwmSmXdM-207" value="url_hash" style="shape=partialRectangle;connectable=0;fillColor=#fff2cc;top=0;left=0;bottom=0;right=0;align=left;spacingLeft=6;overflow=hidden;whiteSpace=wrap;html=1;sketch=1;curveFitting=1;jiggle=2;strokeColor=#d6b656;" vertex="1" parent="bcUhtZM7cYjWSwmSmXdM-205">
          <mxGeometry x="30" width="150" height="30" as="geometry">
            <mxRectangle width="150" height="30" as="alternateBounds" />
          </mxGeometry>
        </mxCell>
      </root>
    </mxGraphModel>
  </diagram>
</mxfile>
